<svg width="53" height="54" viewBox="0 0 53 54" fill="none" xmlns="http://www.w3.org/2000/svg">
<path d="M0.25 53.19V0.970001H52.47V53.19H0.25Z" fill="#323232" stroke="#323232" stroke-width="0.5"/>
<path d="M30.9091 18.5079L29.2545 16.72L20 26.72L29.2545 36.72L30.9091 34.9321L23.3092 26.72L30.9091 18.5079Z" fill="#EEEEEE"/>
<path d="M39.4701 50.54C28.9501 51.29 13.6001 50.98 2.90009 51.04H2.40009V27.08C2.40009 23.23 2.40009 13.22 2.40009 9.48C2.40009 7.38 2.35009 5.27 2.50009 3.17C5.90009 3.32 9.30009 3.43 12.6901 3.61C9.42009 3.78 6.16009 3.9 2.89009 4.03L3.31009 3.61C3.47009 6.97 3.36009 11.92 3.39009 15.34C3.39009 22.78 3.39009 42.84 3.39009 50.53L2.89009 50.03C13.6401 50.03 28.8801 49.84 39.4601 50.53L39.4701 50.54Z" fill="#D8D8D8"/>
<path d="M17.1 3.61999C26.75 2.87999 40.52 3.16999 50.32 3.11999C50.32 11.19 50.32 30.98 50.32 38.81C50.3 42.83 50.4 46.86 50.12 50.88L49.82 50.87L42.96 50.54L49.82 50.21L49.49 50.54C49.24 46.63 49.33 42.72 49.32 38.81C49.32 31.37 49.32 11.31 49.32 3.61999L49.82 4.11999C40.18 4.13999 26.59 4.28999 17.1 3.61999Z" fill="#D8D8D8"/>
</svg>
