<svg width="960" height="596" viewBox="0 0 960 596" fill="none" xmlns="http://www.w3.org/2000/svg">
<path d="M42.6189 57.5277C42.6189 47.6407 41.6611 40.4647 39.7457 35.9996C37.8302 31.5346 33.9993 28.5047 28.253 26.9101C22.8258 25.3154 13.887 24.518 1.43659 24.518C0.478862 24.518 0 23.5612 0 21.6476C0 19.734 0.478862 18.7772 1.43659 18.7772C10.6946 18.7772 18.0372 18.9367 23.4643 19.2556L56.0271 19.734L88.1109 19.2556C93.538 18.9367 101.04 18.7772 110.618 18.7772C111.575 18.7772 112.054 19.734 112.054 21.6476C112.054 23.5612 111.575 24.518 110.618 24.518C98.8055 24.518 90.0264 25.4748 84.28 27.3884C78.8529 28.9831 75.022 32.013 72.7873 36.4781C70.5526 40.9431 69.4352 47.9597 69.4352 57.5277V164.689C69.4352 174.576 70.393 181.752 72.3084 186.217C74.2239 190.683 77.8952 193.712 83.3223 195.307C89.0687 196.902 98.1671 197.699 110.618 197.699C111.575 197.699 112.054 198.656 112.054 200.569C112.054 202.483 111.575 203.44 110.618 203.44C101.359 203.44 94.0169 203.28 88.5898 202.961L56.0271 202.483L23.9432 202.961C18.5161 203.28 11.0139 203.44 1.43659 203.44C0.478862 203.44 0 202.483 0 200.569C0 198.656 0.478862 197.699 1.43659 197.699C13.2486 197.699 21.8681 196.902 27.2952 195.307C33.0416 193.393 37.0321 190.204 39.2668 185.739C41.5015 181.274 42.6189 174.257 42.6189 164.689V57.5277Z" fill="#323232"/>
<path d="M240.405 47.9597C236.254 47.9597 233.86 50.1922 233.222 54.6573L223.165 109.673C267.221 109.992 299.624 118.125 320.375 134.072C341.126 149.7 351.501 171.387 351.501 199.134C351.501 217.313 346.872 233.739 337.614 248.41C328.356 263.399 313.83 277.751 294.037 291.466C274.563 305.499 248.545 320.01 215.982 335H215.504C214.227 335 213.109 334.203 212.152 332.608C211.513 331.332 211.832 330.375 213.109 329.738C252.376 310.283 279.991 290.509 295.953 270.416C311.915 250.642 319.896 229.592 319.896 207.267C319.896 180.796 310.957 160.224 293.08 145.553C275.202 130.882 249.503 123.547 215.982 123.547C214.386 123.547 213.109 123.069 212.152 122.112C211.194 120.836 210.875 119.401 211.194 117.806L226.518 32.6508C226.837 30.4183 227.316 29.1426 227.954 28.8237C228.593 28.1858 230.189 27.7074 232.743 27.3884C272.967 22.6044 299.943 19.2556 313.671 17.342C327.398 15.4284 336.177 13.5148 340.008 11.6012C344.158 9.36868 347.032 5.86041 348.628 1.07641C348.947 0.119598 349.905 -0.199336 351.501 0.119603C353.416 0.119603 354.214 0.757481 353.895 2.03321L344.318 37.4349C343.041 40.9431 341.445 43.3351 339.529 44.6109C337.933 45.5677 335.06 46.0461 330.91 46.0461L240.405 47.9597Z" fill="#323232"/>
<path d="M542.175 209.659C523.339 209.659 506.42 205.353 491.415 196.742C476.73 188.131 465.078 176.33 456.458 161.341C448.158 146.032 444.008 128.809 444.008 109.673C444.008 90.8563 448.158 74.1122 456.458 59.4413C465.078 44.7703 476.89 33.2887 491.894 24.9964C506.898 16.7042 523.818 12.558 542.654 12.558C561.17 12.558 577.77 16.8636 592.455 25.4748C607.141 33.7671 618.474 45.4082 626.455 60.3981C634.755 75.388 638.905 92.2915 638.905 111.109C638.905 129.926 634.755 146.829 626.455 161.819C618.154 176.809 606.662 188.609 591.977 197.221C577.291 205.513 560.691 209.659 542.175 209.659ZM547.442 202.961C566.597 202.961 580.963 195.307 590.54 179.998C600.436 164.37 605.385 143.321 605.385 116.849C605.385 84.956 598.84 60.717 585.751 44.1325C572.982 27.5479 556.86 19.2556 537.386 19.2556C518.551 19.2556 503.706 27.229 492.852 43.1757C482.317 59.1223 477.049 80.0125 477.049 105.846C477.049 134.231 483.434 157.513 496.204 175.693C508.974 193.872 526.053 202.961 547.442 202.961Z" fill="#323232"/>
<path d="M818.27 209.659C799.434 209.659 782.514 205.353 767.51 196.742C752.825 188.131 741.172 176.33 732.553 161.341C724.253 146.032 720.103 128.809 720.103 109.673C720.103 90.8563 724.253 74.1122 732.553 59.4413C741.172 44.7703 752.984 33.2887 767.989 24.9964C782.993 16.7042 799.913 12.558 818.748 12.558C837.264 12.558 853.865 16.8636 868.55 25.4748C883.235 33.7671 894.569 45.4082 902.55 60.3981C910.85 75.388 915 92.2915 915 111.109C915 129.926 910.85 146.829 902.55 161.819C894.249 176.809 882.757 188.609 868.071 197.221C853.386 205.513 836.786 209.659 818.27 209.659ZM823.537 202.961C842.692 202.961 857.058 195.307 866.635 179.998C876.531 164.37 881.48 143.321 881.48 116.849C881.48 84.956 874.935 60.717 861.846 44.1325C849.076 27.5479 832.955 19.2556 813.481 19.2556C794.646 19.2556 779.801 27.229 768.947 43.1757C758.412 59.1223 753.144 80.0125 753.144 105.846C753.144 134.231 759.529 157.513 772.299 175.693C785.068 193.872 802.148 202.961 823.537 202.961Z" fill="#323232"/>
<path d="M42.6026 318.321C42.6026 308.431 41.6452 301.253 39.7305 296.787C37.8158 292.32 33.9863 289.289 28.2422 287.694C22.8171 286.099 13.8817 285.302 1.43604 285.302C0.478679 285.302 0 284.344 0 282.43C0 280.516 0.478679 279.559 1.43604 279.559C10.6905 279.559 18.0303 279.718 23.4554 280.037L56.0057 280.516L88.0773 280.037C93.5023 279.718 101.002 279.559 110.575 279.559C111.533 279.559 112.011 280.516 112.011 282.43C112.011 284.344 111.533 285.302 110.575 285.302C98.7678 285.302 89.992 286.259 84.2479 288.173C78.8228 289.768 74.9934 292.799 72.7595 297.265C70.5257 301.732 69.4087 308.75 69.4087 318.321V425.517C69.4087 435.407 70.3661 442.585 72.2808 447.051C74.1956 451.518 77.8654 454.549 83.2905 456.144C89.0347 457.739 98.1296 458.537 110.575 458.537C111.533 458.537 112.011 459.494 112.011 461.408C112.011 463.322 111.533 464.279 110.575 464.279C101.321 464.279 93.981 464.12 88.556 463.801L56.0057 463.322L23.934 463.801C18.509 464.12 11.0097 464.279 1.43604 464.279C0.478679 464.279 0 463.322 0 461.408C0 459.494 0.478679 458.537 1.43604 458.537C13.2435 458.537 21.8598 457.739 27.2848 456.144C33.029 454.23 37.018 451.039 39.2518 446.573C41.4857 442.106 42.6026 435.088 42.6026 425.517V318.321Z" fill="#323232"/>
<path d="M261.375 568.603C260.417 571.474 259.141 573.548 257.545 574.824C255.95 576.419 253.875 578.174 251.322 580.088L226.91 595.88C226.271 596.199 225.474 595.88 224.516 594.923C223.559 593.966 223.24 593.169 223.559 592.53L351.367 307.315C352.324 305.082 351.526 303.965 348.973 303.965C301.744 303.965 268.874 304.603 250.365 305.879C232.175 307.155 220.049 309.867 213.985 314.014C207.922 318.162 203.295 325.659 200.104 336.506C199.465 337.144 198.668 337.463 197.71 337.463C196.753 337.463 195.795 337.304 194.838 336.985C194.2 336.347 194.04 335.709 194.359 335.071L211.113 266.638C211.432 266 212.549 265.84 214.464 266.16C216.379 266.16 217.177 266.479 216.857 267.117C216.538 268.393 216.379 269.988 216.379 271.902C216.379 275.092 217.815 277.166 220.687 278.123C223.878 279.08 230.101 279.559 239.355 279.559H366.206C367.482 279.559 368.599 280.356 369.557 281.952C370.833 283.228 371.152 284.504 370.514 285.78L261.375 568.603Z" fill="#323232"/>
<path d="M551.317 470.5C532.489 470.5 515.576 466.193 500.577 457.579C485.897 448.966 474.249 437.161 465.633 422.167C457.336 406.853 453.187 389.625 453.187 370.483C453.187 351.66 457.336 334.911 465.633 320.236C474.249 305.56 486.057 294.075 501.056 285.78C516.054 277.485 532.968 273.338 551.796 273.338C570.305 273.338 586.899 277.645 601.578 286.259C616.258 294.553 627.587 306.198 635.565 321.193C643.862 336.187 648.011 353.096 648.011 371.919C648.011 390.742 643.862 407.651 635.565 422.645C627.268 437.64 615.779 449.444 601.1 458.058C586.42 466.353 569.826 470.5 551.317 470.5ZM556.583 463.801C575.73 463.801 590.09 456.144 599.664 440.83C609.557 425.198 614.503 404.141 614.503 377.662C614.503 345.758 607.961 321.512 594.877 304.922C582.112 288.332 565.997 280.037 546.53 280.037C527.702 280.037 512.863 288.013 502.013 303.965C491.482 319.917 486.216 340.813 486.216 366.655C486.216 395.049 492.599 418.338 505.364 436.523C518.128 454.708 535.201 463.801 556.583 463.801Z" fill="#323232"/>
<path d="M827.307 470.5C808.478 470.5 791.565 466.193 776.566 457.579C761.887 448.966 750.239 437.161 741.623 422.167C733.325 406.853 729.177 389.625 729.177 370.483C729.177 351.66 733.325 334.911 741.623 320.236C750.239 305.56 762.046 294.075 777.045 285.78C792.044 277.485 808.957 273.338 827.785 273.338C846.294 273.338 862.888 277.645 877.568 286.259C892.248 294.553 903.576 306.198 911.554 321.193C919.852 336.187 924 353.096 924 371.919C924 390.742 919.852 407.651 911.554 422.645C903.257 437.64 891.769 449.444 877.089 458.058C862.41 466.353 845.815 470.5 827.307 470.5ZM832.572 463.801C851.719 463.801 866.08 456.144 875.653 440.83C885.546 425.198 890.492 404.141 890.492 377.662C890.492 345.758 883.95 321.512 870.866 304.922C858.102 288.332 841.986 280.037 822.52 280.037C803.692 280.037 788.852 288.013 778.002 303.965C767.471 319.917 762.206 340.813 762.206 366.655C762.206 395.049 768.588 418.338 781.353 436.523C794.118 454.708 811.191 463.801 832.572 463.801Z" fill="#323232"/>
<path d="M833.398 251.946C832.758 252.268 832.119 251.143 831.48 248.573C831.16 246.003 831 243.433 831 240.864C831 234.76 831.48 231.708 832.439 231.708L957.602 209.06C958.242 208.739 958.721 209.703 959.041 211.951C959.68 213.879 960 216.128 960 218.698C960 225.122 959.201 228.656 957.602 229.299L833.398 251.946Z" fill="#A92820"/>
</svg>
