<svg xmlns="http://www.w3.org/2000/svg" width="23" height="19.923" viewBox="0 0 23 19.923">
  <g id="file-tray-full-outline_1_" data-name="file-tray-full-outline (1)" transform="translate(-46.5 -78.5)">
    <g id="Tracciato_2518" data-name="Tracciato 2518" fill="#a92820" stroke-linejoin="round">
      <path d="M 50.30768966674805 97.67308807373047 L 50.30659866333008 97.67308807373047 L 50.30551910400391 97.67308807373047 C 48.62557983398438 97.66822052001953 47.25489044189453 96.29751586914062 47.25 94.61756896972656 L 47.25 89.23078155517578 L 47.25 89.15268707275391 L 47.26609039306641 89.07627105712891 L 48.80329513549805 81.77452850341797 C 48.95701599121094 80.98190307617188 49.30391693115234 80.35664367675781 49.83443069458008 79.91590118408203 C 50.36629867553711 79.47403717041016 51.04314041137695 79.25 51.84614944458008 79.25 L 64.15384674072266 79.25 C 65.76334381103516 79.25 66.90040588378906 80.19442749023438 67.19725036621094 81.77710723876953 L 68.73390960693359 89.07627105712891 L 68.75 89.15268707275391 L 68.75 89.23078155517578 L 68.75 94.61537933349609 C 68.74513244628906 96.2974853515625 67.37442779541016 97.66819000244141 65.69448852539062 97.67308044433594 L 50.30768966674805 97.67308807373047 Z" stroke="none"/>
      <path d="M 51.84615325927734 80 C 50.59615325927734 80 49.77884674072266 80.67308044433594 49.53845977783203 81.92308044433594 L 48 89.23078155517578 L 48 94.61538696289062 C 48.00369262695312 95.88835906982422 49.03472137451172 96.91939544677734 50.30769348144531 96.92308807373047 L 65.69230651855469 96.92308044433594 C 66.96527099609375 96.91938018798828 67.99630737304688 95.88835906982422 68 94.61537933349609 L 68 89.23078155517578 L 66.46154022216797 81.92308044433594 C 66.22114562988281 80.625 65.35577392578125 80 64.15385437011719 80 L 51.84615325927734 80 M 51.84615325927734 78.5 L 64.15385437011719 78.5 C 66.12062072753906 78.5 67.56690979003906 79.69886016845703 67.93279266357422 81.63035583496094 L 69.46781921386719 88.92176055908203 C 69.48921966552734 89.02337646484375 69.5 89.12693786621094 69.5 89.23078155517578 L 69.5 94.61537933349609 C 69.49392700195312 96.7108154296875 67.78776550292969 98.41699981689453 65.69667053222656 98.42306518554688 L 50.30769348144531 98.42308807373047 C 48.21224212646484 98.41701507568359 46.50607299804688 96.71084594726562 46.50000762939453 94.61973571777344 L 46.5 89.23078155517578 C 46.5 89.12693786621094 46.51078033447266 89.02337646484375 46.53218078613281 88.92176055908203 L 48.06810760498047 81.62607574462891 C 48.2537841796875 80.67501068115234 48.69863891601562 79.88442993164062 49.35517120361328 79.33900451660156 C 50.01586151123047 78.79011535644531 50.87722015380859 78.5 51.84615325927734 78.5 Z" stroke="none" fill="#fcfcfc"/>
    </g>
    <path id="Tracciato_2519" data-name="Tracciato 2519" d="M48,151.927h6.923m6.154,0H68m-13.077,0c0,2.189,1.378,3.963,3.077,3.963s3.077-1.774,3.077-3.963M52.615,144H63.385m-11.538,3.963H64.154" transform="translate(0 -61.987)" fill="#a92820" stroke="#fcfcfc" stroke-linecap="round" stroke-linejoin="round" stroke-width="1.5"/>
  </g>
</svg>
