<svg width="28" height="198" viewBox="0 0 28 198" fill="none" xmlns="http://www.w3.org/2000/svg">
<g clip-path="url(#clip0_18_11014)">
<path d="M7.0075 188.047C8.04172 187.139 8.70237 185.991 9.02482 184.649C9.62255 182.159 9.10085 179.763 8.33403 177.423C7.30374 174.277 6.53299 171.103 6.8135 167.739C6.92361 166.424 7.01668 165.108 7.30898 163.821C7.41123 163.373 7.34831 163.014 7.09926 162.61C5.66655 160.287 5.68753 157.793 6.44124 155.26C7.09533 153.062 8.08629 151 8.95142 148.887C9.49278 147.565 9.86243 146.184 10.333 144.838C10.4615 144.471 10.3291 144.355 9.98564 144.322C8.35763 144.169 7.00882 143.168 5.48567 142.693C5.20909 142.607 5.12651 142.417 5.42013 142.221C6.13975 141.739 6.51071 140.988 6.81219 140.203C7.2382 139.096 7.90802 138.188 8.79281 137.451C9.08643 137.206 9.12576 137.113 8.74431 136.915C7.74549 136.398 7.75335 135.928 8.49395 135.071C9.46394 133.949 10.5454 132.969 11.653 132.007C11.8129 131.868 11.9938 131.722 12.0305 131.415C11.1444 131.616 10.4693 131.327 9.91879 130.586C9.38136 129.863 9.46394 129.154 10.2124 128.654C10.8036 128.26 10.9701 127.553 11.2335 126.952C12.231 124.68 12.3739 122.254 12.2507 119.803C12.1917 118.624 12.1039 117.444 11.8994 116.278C11.7762 115.572 11.746 115.553 11.2217 115.982C10.9281 116.222 10.6266 116.43 10.2583 116.54C9.64877 116.723 9.23062 116.483 9.15853 115.809C9.05366 114.811 9.14149 113.811 9.23849 112.816C9.41807 110.966 9.228 109.184 8.37467 107.516C8.08367 106.947 7.7101 106.448 7.25132 106.02C7.0914 105.871 6.92493 105.648 6.69554 105.729C6.46615 105.809 6.57101 106.086 6.54348 106.275C6.22627 108.503 3.79605 109.789 2.0304 108.649C0.395833 107.595 -0.905793 104.381 1.19542 102.18C3.18783 100.094 5.59446 99.5237 8.24752 100.385C11.32 101.383 13.5825 103.551 15.3114 106.294C17.6027 109.928 19.0249 113.933 19.8468 118.205C20.5153 121.683 21.1838 125.161 21.8012 128.649C22.1604 130.675 22.8577 132.551 24.3691 133.98C25.2316 134.797 26.1976 135.314 27.4114 134.891C27.8427 134.741 27.8925 135.07 27.9462 135.36C28.1769 136.586 27.6605 137.557 26.8556 138.345C26.0469 139.137 25.0664 139.459 23.9522 139.059C23.3217 138.832 22.7935 138.436 22.1735 137.878C22.2862 138.913 22.3727 139.819 22.4854 140.722C22.724 142.62 23.4829 144.289 24.584 145.803C24.993 146.366 25.3993 146.93 25.8031 147.496C26.1884 148.037 26.3248 148.634 26.1937 149.301C26.115 149.704 25.963 149.965 25.5121 149.955C24.9799 149.946 24.9864 150.167 25.2801 150.559C26.4703 152.142 27.2594 153.929 27.671 155.893C28.0747 157.826 27.8414 159.689 27.0601 161.486C27.0064 161.609 26.988 161.771 26.8451 161.807C26.68 161.849 26.6262 161.691 26.5738 161.572C26.2147 160.767 25.5566 160.293 24.8619 159.841C24.3441 159.505 23.8447 159.132 23.3637 158.742C23.0897 158.518 22.935 158.458 22.821 158.876C22.7686 159.067 22.6571 159.248 22.5444 159.412C22.3098 159.756 22.0738 159.825 21.7579 159.463C21.1078 158.715 20.261 158.229 19.3893 157.588C19.3579 158.182 19.3264 158.686 19.3067 159.191C19.2923 159.577 19.2897 159.962 19.194 160.342C18.9174 161.451 18.6199 161.619 17.6014 161.168C17.5765 162.875 17.8452 164.439 19.0288 165.706C19.2058 165.896 19.4247 165.978 19.6423 166.082C20.8613 166.666 21.1799 167.893 20.375 169.006C19.4418 170.295 18.1572 170.618 16.6943 170.344C15.9576 170.206 15.2655 169.919 14.635 169.495C14.3205 169.283 14.1802 169.305 14.1776 169.742C14.1697 171.028 14.4515 172.217 15.1738 173.282C15.4805 173.735 15.9773 173.812 16.4125 173.993C17.6446 174.508 17.7312 174.634 17.4061 175.948C17.3497 176.175 17.4087 176.231 17.5843 176.279C17.9723 176.384 18.363 176.445 18.7378 176.253C19.211 176.008 19.3644 176.234 19.4168 176.694C19.6161 178.432 18.8021 179.951 17.5975 180.34C17.4821 180.377 17.3301 180.463 17.2907 180.566C16.8569 181.708 15.879 181.648 14.9837 181.652C14.1199 181.655 13.3609 181.199 12.5142 180.704C12.931 182.076 13.2181 183.351 13.1237 184.679C13.0673 185.472 12.9821 186.263 12.9231 187.056C12.7934 188.793 13.0201 190.409 14.2759 191.723C14.8448 192.319 14.6364 192.984 13.7699 193.234C13.2207 193.392 13.1355 193.555 13.4815 194.019C14.8264 195.824 14.694 197.722 13.7765 199.662C13.6375 199.954 13.4815 200.124 13.1774 199.881C12.4316 199.282 11.4721 199.049 10.7774 198.362C10.6266 198.212 10.4719 198.184 10.3264 198.362C9.945 198.829 9.6776 198.489 9.41413 198.216C7.62751 196.362 7.29325 194.621 8.24621 192.158C8.31044 191.99 8.3786 191.824 8.48608 191.551C7.80053 191.875 7.26966 192.297 6.64965 192.544C4.54188 193.384 2.43281 192.962 1.04467 191.379C-0.571546 189.535 -0.267441 186.092 1.64633 184.588C2.63074 183.814 4.49994 183.715 5.57217 184.382C6.68504 185.072 7.22247 186.368 7.0075 187.845C6.99832 187.909 7.0075 187.978 7.0075 188.043L7.0075 188.047ZM12.7265 138.167C13.6205 137.172 14.1776 135.953 14.8055 134.782C14.8933 134.653 15.0008 134.536 15.0676 134.397C16.8175 130.747 17.6407 126.863 17.6381 122.801C17.6355 119.069 17.1085 115.414 15.8148 111.908C14.639 108.72 12.9821 105.856 10.4837 103.596C8.96977 102.227 7.2015 101.615 5.18156 102.021L6.27215 102.021C5.72292 102.361 5.16714 102.17 4.58384 102.488C5.10029 102.541 5.47125 102.288 5.85794 102.477C5.69802 102.724 5.44635 102.628 5.21695 102.804C6.14238 102.738 6.91182 102.968 7.60261 103.445C8.64994 104.167 9.40496 105.154 9.92142 106.34C10.8167 108.401 10.7826 110.533 10.3671 112.694C10.1823 113.656 9.90044 114.588 9.63173 115.525C9.56488 115.759 9.51638 116.042 9.7615 116.211C9.99744 116.374 10.2124 116.244 10.4208 116.095C11.0906 115.617 11.5638 115.004 11.8247 114.185C12.079 113.385 12.0842 112.574 12.0541 111.756C12.0279 111.07 11.9571 110.384 11.906 109.698C12.328 110.778 12.6728 111.868 12.9952 112.967C13.1276 113.417 12.973 113.408 12.9205 113.914C12.8681 114.42 12.5496 114.948 12.8537 115.479C12.8812 115.527 12.8917 115.586 12.9127 115.649C13.0228 115.54 12.91 115.347 13.1211 115.276C13.3583 115.673 13.2731 116.17 13.4422 116.598C13.5615 116.462 13.4042 116.221 13.5995 116.147C13.8355 116.282 13.6624 116.665 13.901 116.69C14.3375 116.737 14.0059 116.233 14.2864 116.043C14.559 117.226 14.951 118.332 15.1043 119.507C15.2695 120.775 15.3206 122.05 15.2236 123.319C15.1777 123.917 15.5867 124.365 15.5683 124.864C15.4713 127.435 14.9929 129.92 13.7516 132.189C13.4986 132.652 13.2902 133.154 12.893 133.513C13.1276 132.814 13.4291 132.159 13.7018 131.491C13.9757 130.822 14.2366 130.147 14.4725 129.463C14.6993 128.804 14.8487 128.125 14.8749 127.423C14.7491 127.765 14.6691 128.119 14.5813 128.47C14.251 129.801 13.7372 131.052 13.0464 132.222C12.9507 132.384 12.8707 132.627 12.6348 132.6C12.37 132.568 12.3765 132.547 12.2992 132.627C12.2009 132.727 12.1472 132.926 11.9296 132.807C11.9086 132.556 12.2533 132.448 12.193 132.123C10.8783 133.117 9.84276 134.33 8.74956 135.657C9.35646 135.412 9.66056 134.924 10.1692 134.713C9.93845 135.044 9.70644 135.374 9.44035 135.756C9.78771 135.657 9.90699 135.295 10.3068 135.324C10.0905 135.808 9.65139 136.039 9.38136 136.435C9.81655 136.145 10.2583 135.997 10.839 136.219C10.1836 137.482 8.75611 137.836 7.98929 138.948C7.23034 140.051 6.94459 141.47 5.79895 142.34C6.64179 142.685 7.43089 143.009 8.21999 143.331C11.1038 144.506 13.4842 143.635 15.0073 140.853C15.1043 140.677 15.1279 140.413 15.4648 140.371C15.3573 140.819 15.411 141.213 15.5526 141.6C15.7165 142.046 15.9498 142.172 16.3286 141.826C16.7559 141.437 17.2068 141.082 17.5699 140.618C18.9738 138.823 19.4955 136.727 19.544 134.463C19.5768 132.929 19.2084 131.441 19.0577 129.927C19.0328 129.68 19.0079 129.427 19.0275 129.181C19.0524 128.871 19.1717 128.59 19.5152 128.545C19.8704 128.499 20.0133 128.759 20.109 129.058C20.2204 129.407 20.2846 129.767 20.2676 130.133C20.0762 134.256 20.4026 138.359 20.763 142.456C20.8876 143.865 21.2887 145.218 22.0227 146.434C21.7501 145.538 21.3267 144.693 21.2258 143.74C21.3713 143.922 21.4565 144.128 21.5443 144.332C21.9965 145.391 22.4317 146.464 23.0805 147.414C23.5839 148.152 24.1279 148.867 25.2486 149.069C23.9666 147.895 22.8944 146.755 22.1944 145.285C21.4918 143.807 21.1694 142.247 21.075 140.619C21.5023 141.804 21.6177 143.081 22.1105 144.248C22.7371 145.731 23.5249 146.938 24.1436 147.244C21.8536 144.433 21.0147 140.122 21.3319 138.606C21.7252 142.681 23.5498 146.736 25.5278 147.817C25.3154 147.525 25.1516 147.286 24.9746 147.057C23.365 144.961 22.1394 142.693 21.9205 139.942C21.8222 138.699 21.796 137.444 21.5299 136.218C21.5023 136.092 21.4879 135.939 21.7212 135.826C22.2941 137.066 23.0006 138.202 24.525 138.622C24.3153 138.212 23.8972 138.167 23.829 137.752C24.4176 137.888 24.8619 138.471 25.5579 138.144C24.7544 137.692 24.0296 137.253 23.5039 136.526C24.3245 136.875 24.9773 137.661 25.9643 137.559C25.0166 137.176 24.2183 136.597 23.5734 135.788C24.1606 136.073 24.6889 136.462 25.2617 136.758C25.9433 137.111 26.5974 136.926 26.9212 136.376C25.4269 136.726 23.8041 135.859 23.167 134.301C23.7228 134.754 24.1266 135.262 24.6679 135.601C25.4767 136.106 25.9551 136.171 26.389 135.763C23.1002 134.839 22.1105 132.016 21.2376 128.871C21.3201 130.355 21.6452 131.588 22.0227 132.809C20.3842 129.252 20.2269 125.402 20.0054 121.562C19.8953 123.521 20.1561 125.484 19.7813 127.441C19.6934 123.245 19.7852 119.035 18.5557 114.972C18.6317 115.482 18.7457 115.987 18.8414 116.495C19.4103 119.502 19.624 122.53 19.3041 125.585C19.274 125.876 19.2517 126.19 18.9266 126.531C18.9948 125.345 19.0931 124.309 19.1009 123.272C19.1088 122.251 19.0524 121.227 18.9764 120.207C18.8991 119.166 18.8099 118.121 18.5871 117.1C18.3643 116.08 18.1545 115.056 17.8871 114.049C17.625 113.063 17.3235 112.088 16.9919 111.126C16.6602 110.165 16.2709 109.225 15.6968 108.386C17.7718 113.197 19.1573 118.146 18.6959 123.484C18.6894 122.209 18.5504 120.928 18.4547 119.646C18.3577 118.34 18.1257 117.054 17.7469 115.793C18.4665 118.704 18.5085 121.646 18.2319 124.606C17.9933 124.063 18.1231 123.491 18.0261 122.934C18.072 126.154 17.5608 129.274 16.4872 132.291C15.4268 135.27 14.0203 138.021 11.6228 140.094C10.5834 140.994 9.39185 141.582 7.99191 141.959C8.08236 141.818 8.09809 141.766 8.13086 141.75C8.28684 141.671 8.44807 141.601 8.60799 141.527C10.2491 140.766 11.6871 139.733 12.7291 138.174L12.7265 138.167ZM19.021 152.058C17.254 149.145 16.09 146.067 16.5121 142.535C15.9078 145.365 16.6707 148.031 17.4808 150.702C16.8739 149.604 16.5095 148.431 16.2067 147.23C15.9039 146.02 15.7899 144.794 15.8174 143.548C15.6339 145.428 15.7912 147.268 16.3194 149.077C16.4204 149.424 16.6432 149.81 16.3194 150.322C15.7151 148.3 15.1921 146.393 15.2813 144.36C15.2039 145.584 15.2079 146.801 15.2813 148.023C14.7937 146.713 14.8317 145.331 14.753 143.963C14.6809 144.931 14.5276 145.889 14.5538 146.864C14.1487 145.555 14.4004 144.222 14.4083 142.894C14.0399 143.949 13.9351 145.055 13.8315 146.153C13.6362 148.228 13.8315 150.243 14.8762 152.089C15.2367 152.725 15.4844 152.762 15.9576 152.197C16.1831 151.927 16.3509 151.603 16.5868 151.237C16.967 153.656 17.815 155.708 19.5781 157.243C20.2807 157.855 21.0422 158.392 21.7645 158.979C22.1066 159.258 22.2652 159.1 22.3884 158.76C22.5234 158.387 22.5248 158.005 22.4815 157.616C22.4631 157.457 22.3321 157.259 22.6703 157.112C23.4082 158.922 25.3076 159.34 26.6013 160.72C26.5502 159.134 25.7454 158.028 24.8934 156.76C25.4859 156.988 25.5946 157.487 25.963 157.688C26.06 157.412 25.7257 157.285 25.845 156.985C26.4794 157.504 26.6446 158.311 27.1466 159.112C26.8963 157.824 26.2133 156.951 25.8791 155.895C26.1635 156.263 26.4467 156.63 26.7311 156.998C26.7744 156.964 26.8176 156.93 26.8596 156.896C26.3641 156.132 25.8699 155.368 25.3744 154.604C26.0377 154.972 26.368 155.64 26.874 156.136C26.233 154.71 25.1201 153.651 24.1737 152.419C24.5277 152.327 24.6417 152.75 24.9982 152.643C24.7203 152.303 24.4818 152.011 24.2419 151.718C25.1188 152.135 25.7008 152.879 26.3444 153.55C25.8463 152.366 25.0009 151.473 24.1606 150.553C24.4307 150.716 24.7007 150.878 24.9694 151.042C24.8816 150.765 24.7492 150.529 24.5578 150.365C23.9928 149.88 23.5131 149.349 23.0569 148.73C21.463 146.572 20.4969 144.199 20.2846 141.489C20.1876 140.24 20.084 138.992 19.9831 137.744C19.7013 140.927 19.7852 144.056 21.2992 146.964C20.4655 145.921 20.0945 144.691 19.8035 143.428C19.5152 142.172 19.5361 140.872 19.3487 139.602C19.2373 141.735 19.1704 143.862 20.0801 145.873C18.9554 144.674 19.1141 143.077 18.8165 141.452C18.7221 142.351 18.785 143.074 18.768 143.799C18.5452 143.047 18.4783 142.278 18.4337 141.505C18.3682 141.75 18.4075 142.087 18.2699 142.213C18.0733 142.392 17.9789 142.535 17.9579 142.804C17.718 145.887 18.4272 148.711 20.0683 151.282C20.4262 151.843 20.8666 152.359 20.7696 153.176C17.9737 150.19 16.6445 146.71 17.0509 142.562C16.4898 146.001 17.5752 149.07 19.0157 152.064L19.021 152.058ZM8.69843 167.559C8.25931 166.615 8.35631 165.575 8.20426 164.535C8.05745 165.084 8.2698 165.634 7.96701 166.247C7.77039 165.429 7.88049 164.723 7.79267 164.032C7.58556 165.242 7.32602 166.435 7.444 167.679C7.6511 169.872 8.41923 171.866 9.39316 173.787C10.662 176.29 12.446 178.148 15.221 178.736C15.8973 178.88 16.5593 178.907 17.3458 178.559C16.8896 178.492 16.6039 178.84 16.2565 178.574C16.4741 178.353 16.8123 178.415 17.0102 178.125C16.7533 178.127 16.5383 178.267 16.25 178.029C16.8385 177.831 17.3209 177.565 17.5673 176.99C17.0967 177.438 16.6104 177.794 15.7492 177.512C16.3168 177.29 16.7939 177.294 17.1256 176.776C16.6629 176.922 16.3207 177.238 15.9039 177.114C15.8397 176.855 16.1346 176.915 16.1477 176.746C16.0297 176.631 15.7781 176.796 15.7204 176.493C15.9275 176.292 16.2316 176.311 16.4793 176.194C16.8057 176.04 17.1295 175.872 17.1295 175.432C17.1295 175.013 16.8123 174.883 16.5056 174.739C15.6706 174.346 14.833 173.955 14.0111 173.535C12.1956 172.606 10.8862 171.16 10.0577 169.244C9.47705 167.901 9.14279 166.499 9.13362 165.018C9.13231 164.755 9.27257 164.3 8.87146 164.303C8.53327 164.305 8.67484 164.738 8.67091 164.977C8.65649 165.833 8.63814 166.692 8.70106 167.559L8.69843 167.559ZM5.88677 188.334C6.3272 187.139 5.9156 185.96 4.98494 185.279C3.84978 184.447 2.74871 185.143 1.63322 185.254C1.56113 185.261 1.49165 185.354 1.43005 185.415C-0.0839279 186.935 0.0786103 190.191 1.73415 191.534C3.28745 192.794 5.5263 192.86 7.3955 191.683C8.01026 191.295 8.72596 190.944 9.04842 190.274C9.44166 189.456 9.89388 188.67 10.2832 187.848C11.0985 186.124 11.4603 184.35 11.3515 182.451C11.2689 183.734 11.033 184.975 10.451 186.118C10.4968 185.457 10.6568 184.824 10.7525 184.179C10.8455 183.553 10.936 182.913 10.9137 182.283C10.8914 181.656 10.9517 181.001 10.6253 180.228C10.8245 182.23 10.7629 184.028 10.0132 185.74C10.0813 185.279 10.1508 184.818 10.2386 184.225C9.97777 184.696 10.0879 185.404 9.82048 185.416C9.20964 185.444 9.27912 185.932 9.13493 186.226C8.32223 187.877 7.16217 189.105 5.43978 189.686C4.46848 190.013 3.49587 189.552 3.30187 188.696C4.11981 189 4.58121 188.858 4.85123 188.195C5.06883 187.661 4.93775 187.18 4.61005 186.73C4.28235 186.281 3.77245 186.167 3.20618 185.952C3.99528 185.614 4.43964 186.185 5.07931 186.498C4.82764 185.878 4.43309 185.679 4.00577 185.519C3.57451 185.358 3.1236 185.474 2.68186 185.411C3.30187 184.999 3.94678 185.007 4.55761 185.389C5.62067 186.054 6.03882 187.06 5.88808 188.337L5.88677 188.334ZM10.5624 159.905C10.0918 161.328 10.5794 162.607 10.8796 163.759C11.6241 166.626 13.4711 168.671 16.1844 169.723C17.4323 170.206 18.6435 170.06 19.6266 168.99C20.1968 168.37 20.3475 167.555 20.0054 167C19.6489 166.422 18.962 166.259 18.1218 166.61C17.1072 167.033 16.1149 166.962 15.1279 166.547C14.8618 166.435 14.6167 166.307 14.3139 166.402C14.1435 166.456 13.9102 166.449 13.8564 166.256C13.7712 165.949 14.0832 165.993 14.2366 165.919C14.4384 165.824 14.6717 165.761 14.7111 165.503C14.7556 165.205 14.5249 165.062 14.3231 164.928C14.1579 164.819 13.9836 164.718 13.8014 164.647C13.0162 164.344 12.425 163.793 11.9191 163.116C11.2348 162.2 10.8613 161.142 10.5624 159.906L10.5624 159.905ZM12.6348 191.358C12.0842 190.528 12.0016 189.56 11.8653 188.536C11.7618 189.336 12.0239 190.046 11.999 190.853C11.6857 190.484 11.7146 190.077 11.5953 189.703C11.3266 189.967 11.6582 190.274 11.4118 190.547C11.1496 190.041 11.3213 189.492 11.168 188.991C11.2715 189.59 10.6201 189.716 10.5218 190.206C10.0879 192.357 10.4654 194.31 11.7421 196.071C11.8889 196.274 12.1367 196.438 12.0593 196.875C11.0421 196.334 10.8114 195.257 10.2504 194.244C10.3291 195.102 10.7747 195.664 10.8298 196.343C10.042 195.36 9.76935 194.188 9.63958 192.811C9.48753 194.063 9.78639 195.111 9.95811 196.18C9.36301 195.144 9.27256 193.994 9.25814 192.827C9.06414 194.019 9.28436 195.174 9.53079 196.333C8.94748 195.534 8.95142 194.56 8.74431 193.652C8.62634 194.631 8.67877 195.571 9.17163 196.437C9.23455 196.546 9.28829 196.714 9.2529 196.822C9.05628 197.427 9.62517 197.565 9.84931 197.906C9.95156 198.061 10.1128 197.951 10.1416 197.806C10.3854 196.576 10.5794 197.361 10.8193 197.81C10.9111 197.981 11.071 198.141 11.2374 198.235C11.8811 198.601 12.5391 198.939 13.2535 199.32C13.3111 198.477 12.8353 197.943 12.5076 197.286C12.8956 197.353 13.0424 197.63 13.2286 197.802C13.6283 197.356 13.5366 196.893 13.2679 196.42C13.3334 196.378 13.399 196.334 13.4645 196.292C13.5589 196.475 13.6533 196.657 13.7476 196.84C13.1709 195.379 12.8248 193.886 12.3176 192.306C12.7724 192.525 12.9651 193.013 13.4304 192.838C13.3688 192.629 13.1053 192.629 13.1211 192.349C13.4986 192.587 13.6546 192.154 14.0006 192.147C12.8497 191.028 12.4421 189.665 12.3411 188.161C12.0947 189.268 12.5155 190.293 12.6387 191.358L12.6348 191.358ZM8.89112 150.189C8.71285 150.803 8.40482 151.331 8.17805 151.892C7.58425 153.357 6.9459 154.807 6.64703 156.383C6.22758 158.596 6.48449 160.682 7.74024 162.571C8.12561 163.152 8.61716 163.593 9.33155 163.649C9.74052 163.68 10.063 163.514 10.2085 163.09C10.3343 162.724 10.2334 162.419 9.92403 162.196C8.31568 161.036 7.8202 159.314 7.71402 157.408C7.63669 156.026 8.01158 154.705 8.26849 153.37C8.47298 152.309 8.68402 151.249 8.89112 150.189ZM5.9995 106.492C5.9995 106.203 6.00737 106.069 5.9995 105.936C5.93396 104.933 5.16321 104.167 4.29415 104.238C3.48539 104.305 2.90732 105.071 2.94927 106.043C2.95713 106.218 2.96238 106.365 2.78804 106.439C2.61371 106.514 2.38563 106.517 2.30436 106.36C2.01991 105.808 1.51657 105.316 1.77348 104.481C1.86786 104.759 1.93209 104.949 1.99632 105.139C1.78659 104.452 2.46952 103.797 2.0671 103.128C2.76445 102.35 3.21405 101.29 4.31381 100.968C5.18025 100.714 6.04931 100.556 6.96032 100.72C7.63669 100.841 8.28947 101.055 8.95273 101.229C7.07436 100.018 4.07656 100.331 2.13133 101.913C0.520356 103.224 0.179551 105.086 1.1928 106.948C1.44972 107.42 1.77873 107.793 2.26241 108.006C3.34251 108.481 4.39246 107.98 4.61923 106.944C4.71361 106.514 4.38198 106.268 4.30595 105.917C4.70968 105.861 4.7975 106.249 5.0885 106.447C4.96528 105.767 4.73196 105.311 4.13685 105.158C3.9363 105.106 3.71871 104.963 3.75279 104.77C3.79211 104.549 4.06738 104.578 4.25745 104.566C5.14748 104.508 5.70719 105.088 6.00081 106.491L5.9995 106.492ZM14.1553 127.845C13.2377 128.829 12.0987 128.929 10.8862 128.83C10.1442 128.77 9.83883 129.266 10.0643 130.002C10.2557 130.626 10.6424 130.899 11.2584 130.926C11.9689 130.957 12.522 130.652 12.9992 130.147C13.5943 129.516 13.9351 128.738 14.1553 127.843L14.1553 127.845ZM15.3966 179.389C15.3796 179.464 15.3639 179.538 15.3468 179.613C14.6967 179.27 14.019 179.665 13.3649 179.423C13.3046 179.401 13.2023 179.352 13.184 179.374C12.7095 179.923 12.3647 179.349 11.9899 179.206C11.708 179.098 11.4682 178.875 11.0553 178.604C11.8404 179.603 12.6741 180.288 13.5733 180.725C14.4489 181.151 14.7202 181.142 15.3888 180.785C15.5644 180.691 15.8095 180.739 16.0153 180.721C16.0507 180.471 15.6313 180.577 15.7584 180.321C15.8384 180.162 16.0337 180.228 16.1805 180.222C16.3745 180.212 16.5685 180.219 16.7913 180.219C16.6589 179.983 16.3561 180.211 16.288 179.919C16.5501 179.708 16.9276 179.85 17.1741 179.611C17.1164 179.482 16.8988 179.637 16.887 179.412C17.3143 179.148 17.8609 179.071 18.1585 178.574C17.5267 178.971 16.8608 179.174 16.1162 179.177C15.394 179.18 14.7242 178.881 14.0006 178.897L15.3953 179.389L15.3966 179.389ZM10.8731 159.02C11.4485 155.282 12.1288 151.756 12.8891 148.246C11.8339 151.705 10.8246 155.173 10.8731 159.02ZM13.167 162.051C12.7501 158.866 13.5615 155.781 13.922 152.657C13.1237 155.736 12.5443 158.836 13.167 162.051ZM10.5467 154.111C11.1313 151.258 11.7657 148.429 12.6374 145.661C11.5887 148.389 10.9556 151.226 10.5467 154.111ZM9.46132 158.566C9.8231 156.044 10.2517 153.535 10.6777 151.024C10.0656 153.502 9.55963 155.998 9.46132 158.566Z" fill="#323232"/>
</g>
<g clip-path="url(#clip1_18_11014)">
<path d="M7.0075 11.95C8.04172 12.8579 8.70236 14.0061 9.02482 15.3482C9.62255 17.8384 9.10085 20.2345 8.33403 22.5745C7.30374 25.7201 6.53299 28.8943 6.8135 32.2583C6.92361 33.5731 7.01667 34.8892 7.30898 36.1766C7.41122 36.6244 7.34831 36.9835 7.09925 37.3876C5.66655 39.7099 5.68752 42.2043 6.44123 44.7368C7.09532 46.9349 8.08629 48.9978 8.95141 51.1099C9.49277 52.4328 9.86242 53.8131 10.333 55.1592C10.4615 55.5265 10.3291 55.6425 9.98564 55.6753C8.35762 55.8282 7.00881 56.8289 5.48566 57.3041C5.20908 57.3901 5.1265 57.5798 5.42012 57.7764C6.13975 58.2584 6.51071 59.0093 6.81219 59.7943C7.2382 60.9015 7.90802 61.8094 8.79281 62.5467C9.08643 62.791 9.12575 62.8839 8.74431 63.0818C7.74548 63.5993 7.75334 64.0689 8.49395 64.9263C9.46394 66.0486 10.5453 67.0288 11.653 67.99C11.8129 68.1292 11.9938 68.2753 12.0305 68.5825C11.1444 68.3818 10.4693 68.6699 9.91879 69.4112C9.38136 70.1348 9.46394 70.8434 10.2124 71.343C10.8036 71.7376 10.97 72.4448 11.2335 73.0455C12.231 75.3173 12.3739 77.7434 12.2507 80.194C12.1917 81.3736 12.1039 82.5532 11.8994 83.7191C11.7762 84.425 11.746 84.4441 11.2217 84.0154C10.9281 83.7751 10.6266 83.5676 10.2583 83.457C9.64876 83.2741 9.23061 83.5144 9.15852 84.1888C9.05366 85.1868 9.14148 86.1862 9.23848 87.1815C9.41806 89.0314 9.22799 90.813 8.37466 92.4814C8.08367 93.0507 7.71009 93.549 7.25131 93.9777C7.09139 94.1265 6.92492 94.3491 6.69553 94.2685C6.46614 94.188 6.571 93.9108 6.54347 93.7224C6.22626 91.4943 3.79604 90.2082 2.03039 91.3482C0.395824 92.4022 -0.905802 95.616 1.19541 97.8168C3.18783 99.903 5.59446 100.474 8.24751 99.6122C11.32 98.6142 13.5825 96.4461 15.3114 93.7033C17.6027 90.069 19.0249 86.0647 19.8468 81.7928C20.5153 78.3141 21.1838 74.8367 21.8012 71.3485C22.1603 69.3225 22.8577 67.4466 24.369 66.0172C25.2316 65.2007 26.1976 64.6833 27.4114 65.1065C27.8427 65.2567 27.8925 64.9277 27.9462 64.6369C28.1769 63.4109 27.6605 62.4402 26.8556 61.6524C26.0469 60.8606 25.0664 60.5384 23.9522 60.9384C23.3217 61.165 22.7935 61.5609 22.1735 62.1193C22.2862 61.0845 22.3727 60.1779 22.4854 59.2755C22.724 57.3778 23.4829 55.7081 24.584 54.194C24.993 53.6315 25.3993 53.0676 25.8031 52.5011C26.1884 51.9604 26.3248 51.3638 26.1937 50.6962C26.115 50.2934 25.963 50.0327 25.5121 50.0422C24.9799 50.0518 24.9864 49.8306 25.2801 49.4388C26.4703 47.8551 27.2594 46.0679 27.671 44.1047C28.0747 42.1715 27.8414 40.3079 27.0601 38.5112C27.0064 38.3883 26.988 38.2259 26.8451 38.1904C26.68 38.1481 26.6262 38.3064 26.5738 38.4252C26.2147 39.2307 25.5566 39.7045 24.8619 40.1564C24.3441 40.4922 23.8447 40.8649 23.3637 41.2554C23.0897 41.4793 22.935 41.5394 22.821 41.1216C22.7686 40.9305 22.6571 40.7489 22.5444 40.585C22.3098 40.241 22.0738 40.1727 21.7579 40.5345C21.1078 41.2827 20.261 41.7687 19.3893 42.409C19.3579 41.8152 19.3264 41.3114 19.3067 40.8062C19.2923 40.4199 19.2897 40.0349 19.194 39.6553C18.9174 38.5467 18.6199 38.3788 17.6014 38.8293C17.5765 37.1227 17.8452 35.5582 19.0288 34.2912C19.2058 34.1014 19.4247 34.0195 19.6423 33.9157C20.8613 33.3314 21.1799 32.104 20.375 30.9914C19.4417 29.7025 18.1572 29.379 16.6943 29.6534C15.9576 29.7913 15.2655 30.078 14.635 30.5026C14.3205 30.7142 14.1802 30.6924 14.1776 30.2555C14.1697 28.9694 14.4515 27.7803 15.1738 26.7154C15.4805 26.2621 15.9773 26.1856 16.4125 26.0041C17.6446 25.4893 17.7312 25.3637 17.4061 24.049C17.3497 23.8224 17.4087 23.7664 17.5843 23.7186C17.9723 23.6135 18.363 23.552 18.7378 23.7445C19.211 23.9889 19.3644 23.7637 19.4168 23.3036C19.6161 21.5656 18.8021 20.046 17.5975 19.6569C17.4821 19.6201 17.33 19.5341 17.2907 19.4317C16.8569 18.289 15.879 18.349 14.9837 18.3449C14.1199 18.3422 13.3609 18.7982 12.5142 19.2938C12.931 17.9217 13.2181 16.6465 13.1237 15.3181C13.0673 14.5249 12.9821 13.7344 12.9231 12.9412C12.7934 11.2046 13.0201 9.58814 14.2759 8.27475C14.8448 7.67813 14.6364 7.01325 13.7699 6.76341C13.2207 6.60504 13.1355 6.44257 13.4815 5.97838C14.8264 4.17351 14.694 2.27579 13.7765 0.335754C13.6375 0.0435875 13.4815 -0.12707 13.1774 0.115946C12.4316 0.715297 11.4721 0.948756 10.7774 1.63548C10.6266 1.78566 10.4719 1.81297 10.3264 1.63548C9.945 1.16856 9.6776 1.50851 9.41413 1.78157C7.62751 3.63559 7.29325 5.3763 8.2462 7.83923C8.31043 8.00716 8.3786 8.17372 8.48608 8.44678C7.80053 8.12184 7.26966 7.69998 6.64965 7.45287C4.54188 6.61323 2.43281 7.0351 1.04467 8.6188C-0.571547 10.4619 -0.267443 13.9051 1.64633 15.4096C2.63074 16.1837 4.49994 16.282 5.57217 15.6158C6.68504 14.9249 7.22247 13.6293 7.0075 12.1521C6.99832 12.0879 7.0075 12.0197 7.0075 11.9541V11.95ZM12.7265 61.8299C13.6205 62.8252 14.1776 64.0443 14.8054 65.2157C14.8933 65.3441 15.0008 65.4615 15.0676 65.6007C16.8175 69.2501 17.6407 73.1343 17.6381 77.1959C17.6355 80.9286 17.1085 84.5834 15.8148 88.0893C14.639 91.2772 12.9821 94.1416 10.4837 96.4011C8.96976 97.7704 7.2015 98.3821 5.18155 97.9766L6.27214 97.9766C5.72292 97.6366 5.16714 97.8278 4.58383 97.5097C5.10028 97.4564 5.47124 97.709 5.85793 97.5206C5.69801 97.2735 5.44634 97.369 5.21695 97.1929C6.14237 97.2598 6.91181 97.0291 7.6026 96.5526C8.64993 95.8304 9.40495 94.8433 9.92141 93.6569C10.8167 91.5967 10.7826 89.4642 10.3671 87.303C10.1823 86.3418 9.90043 85.4093 9.63172 84.4728C9.56487 84.2379 9.51637 83.9553 9.76149 83.786C9.99743 83.6236 10.2124 83.7533 10.4208 83.9021C11.0906 84.3799 11.5638 84.9929 11.8247 85.8121C12.079 86.6121 12.0842 87.4231 12.0541 88.2409C12.0279 88.9276 11.9571 89.613 11.906 90.2997C12.328 89.2198 12.6728 88.1289 12.9952 87.0299C13.1276 86.5807 12.9729 86.5889 12.9205 86.0838C12.8681 85.5773 12.5496 85.0489 12.8537 84.5178C12.8812 84.47 12.8917 84.4113 12.9127 84.3485C13.0228 84.4578 12.91 84.6503 13.1211 84.7212C13.3583 84.324 13.2731 83.827 13.4422 83.3997C13.5615 83.5348 13.4042 83.7765 13.5995 83.8502C13.8355 83.715 13.6624 83.3328 13.901 83.3068C14.3375 83.2604 14.0059 83.7642 14.2864 83.954C14.559 82.7717 14.9509 81.6658 15.1043 80.4903C15.2695 79.222 15.3206 77.9468 15.2236 76.6785C15.1777 76.0805 15.5867 75.6327 15.5683 75.133C15.4713 72.5622 14.9929 70.0774 13.7516 67.8084C13.4986 67.3456 13.2902 66.8431 12.893 66.4841C13.1276 67.1831 13.4291 67.8384 13.7018 68.506C13.9757 69.175 14.2366 69.8508 14.4725 70.5348C14.6993 71.1929 14.8487 71.8728 14.8749 72.5745C14.7491 72.2318 14.6691 71.8782 14.5813 71.5274C14.251 70.1962 13.7371 68.9456 13.0464 67.7756C12.9507 67.6131 12.8707 67.3701 12.6348 67.3974C12.37 67.4288 12.3765 67.4507 12.2992 67.3701C12.2009 67.2705 12.1471 67.0711 11.9296 67.1899C11.9086 67.4411 12.2533 67.549 12.193 67.8739C10.8783 66.88 9.84276 65.6676 8.74955 64.3406C9.35645 64.585 9.66056 65.0738 10.1691 65.284C9.93845 64.9536 9.70644 64.6232 9.44034 64.241C9.78771 64.3406 9.90699 64.7024 10.3068 64.6737C10.0905 64.1891 9.65138 63.9583 9.38136 63.5624C9.81654 63.8518 10.2583 64.0007 10.839 63.7781C10.1836 62.5153 8.75611 62.1617 7.98929 61.049C7.23033 59.9458 6.94458 58.5273 5.79894 57.6577C6.64179 57.3122 7.43089 56.9887 8.21999 56.6665C11.1038 55.491 13.4842 56.362 15.0073 59.1444C15.1043 59.3205 15.1279 59.584 15.4648 59.6264C15.3573 59.1786 15.411 58.784 15.5526 58.3976C15.7165 57.9512 15.9498 57.8256 16.3286 58.171C16.7559 58.5601 17.2068 58.9151 17.5699 59.3792C18.9738 61.1746 19.4955 63.2702 19.544 65.5339C19.5768 67.0684 19.2084 68.5565 19.0577 70.0706C19.0328 70.3177 19.0079 70.5703 19.0275 70.816C19.0524 71.126 19.1717 71.4072 19.5152 71.4523C19.8704 71.4987 20.0133 71.2379 20.1089 70.9389C20.2204 70.5908 20.2846 70.2304 20.2676 69.8645C20.0762 65.7414 20.4026 61.6388 20.763 57.5416C20.8876 56.1327 21.2887 54.7797 22.0227 53.5632C21.7501 54.4588 21.3267 55.3039 21.2257 56.2569C21.3712 56.0753 21.4564 55.8692 21.5443 55.6657C21.9965 54.6063 22.4317 53.5332 23.0805 52.583C23.5839 51.8457 24.1279 51.1303 25.2486 50.9283C23.9666 52.1024 22.8944 53.2424 22.1944 54.7128C21.4918 56.19 21.1694 57.7505 21.075 59.3779C21.5023 58.1928 21.6177 56.9163 22.1105 55.749C22.7371 54.2663 23.5249 53.0595 24.1436 52.7536C21.8536 55.5647 21.0147 59.8748 21.3319 61.3916C21.7252 57.3163 23.5498 53.2615 25.5278 52.1802C25.3154 52.4724 25.1516 52.7113 24.9746 52.9407C23.365 55.0364 22.1394 57.3041 21.9205 60.0551C21.8222 61.2988 21.7959 62.5535 21.5299 63.7795C21.5023 63.9051 21.4879 64.058 21.7212 64.1713C22.294 62.9317 23.0006 61.7958 24.525 61.3753C24.3153 61.7848 23.8972 61.8299 23.829 62.2449C24.4175 62.1098 24.8619 61.5268 25.5579 61.8531C24.7544 62.305 24.0295 62.7446 23.5039 63.4709C24.3245 63.1228 24.9773 62.3364 25.9643 62.4388C25.0166 62.8211 24.2183 63.3999 23.5734 64.2095C24.1606 63.9242 24.6889 63.5351 25.2617 63.2388C25.9433 62.8866 26.5974 63.0709 26.9212 63.6211C25.4269 63.2716 23.8041 64.1386 23.167 65.6963C23.7228 65.243 24.1265 64.7352 24.6679 64.3966C25.4767 63.8914 25.9551 63.8259 26.389 64.2341C23.1002 65.1584 22.1105 67.9818 21.2375 71.126C21.3201 69.6419 21.6452 68.4091 22.0227 67.1885C20.3842 70.7451 20.2269 74.5951 20.0054 78.4356C19.8953 76.4764 20.1561 74.5132 19.7812 72.5568C19.6934 76.7522 19.7852 80.9627 18.5556 85.0257C18.6317 84.5151 18.7457 84.0099 18.8414 83.5021C19.4103 80.4958 19.6239 77.4676 19.3041 74.4122C19.274 74.1214 19.2517 73.8073 18.9266 73.466C18.9948 74.6524 19.0931 75.6887 19.1009 76.7249C19.1088 77.7461 19.0524 78.7701 18.9764 79.7899C18.8991 80.8316 18.8099 81.876 18.5871 82.8973C18.3643 83.9171 18.1545 84.9411 17.8871 85.9486C17.625 86.9343 17.3235 87.9091 16.9919 88.8716C16.6602 89.8328 16.2709 90.7721 15.6968 91.6117C17.7718 86.8005 19.1573 81.8515 18.6959 76.5133C18.6893 77.7884 18.5504 79.0691 18.4547 80.351C18.3577 81.6576 18.1257 82.9437 17.7469 84.2038C18.4665 81.2931 18.5085 78.3509 18.2319 75.391C17.9933 75.9344 18.1231 76.5065 18.0261 77.0635C18.072 73.8428 17.5607 70.7232 16.4872 67.706C15.4268 64.727 14.0203 61.976 11.6228 59.9035C10.5834 59.0038 9.39184 58.4154 7.99191 58.0386C8.08236 58.1792 8.09808 58.2311 8.13085 58.2474C8.28684 58.3266 8.44807 58.3963 8.60798 58.47C10.2491 59.2318 11.6871 60.2639 12.7291 61.8231L12.7265 61.8299ZM19.021 47.9397C17.254 50.8518 16.09 53.9305 16.5121 57.4624C15.9078 54.6322 16.6707 51.9659 17.4808 49.2954C16.8739 50.3931 16.5095 51.5659 16.2067 52.7673C15.9039 53.9769 15.7899 55.2029 15.8174 56.4494C15.6339 54.5694 15.7912 52.7291 16.3194 50.9201C16.4204 50.5733 16.6432 50.1869 16.3194 49.675C15.7151 51.6969 15.1921 53.6042 15.2813 55.6371C15.2039 54.4138 15.2079 53.196 15.2813 51.9741C14.7937 53.2847 14.8317 54.6664 14.753 56.0344C14.6809 55.0664 14.5276 54.108 14.5538 53.1332C14.1487 54.4425 14.4004 55.775 14.4083 57.1034C14.0399 56.048 13.9351 54.9421 13.8315 53.8445C13.6362 51.7693 13.8315 49.7542 14.8762 47.9083C15.2367 47.2721 15.4844 47.2352 15.9576 47.8005C16.1831 48.0708 16.3509 48.3944 16.5868 48.7602C16.967 46.341 17.815 44.289 19.5781 42.7544C20.2807 42.1428 21.0422 41.6049 21.7645 41.0178C22.1066 40.7393 22.2652 40.8977 22.3884 41.2376C22.5234 41.6104 22.5247 41.9926 22.4815 42.3817C22.4631 42.5401 22.3321 42.7381 22.6702 42.8855C23.4082 41.0752 25.3076 40.6574 26.6013 39.2771C26.5502 40.8636 25.7454 41.9694 24.8934 43.2378C25.4858 43.0098 25.5946 42.5101 25.963 42.3094C26.06 42.5852 25.7257 42.7121 25.845 43.0125C26.4794 42.4937 26.6446 41.6868 27.1466 40.8854C26.8963 42.1728 26.2133 43.0466 25.8791 44.102C26.1635 43.7347 26.4467 43.3675 26.7311 42.9988C26.7744 43.033 26.8176 43.0671 26.8596 43.1012C26.3641 43.8658 25.8699 44.629 25.3744 45.3935C26.0377 45.0249 26.368 44.3573 26.874 43.8617C26.233 45.287 25.1201 46.3465 24.1737 47.5779C24.5277 47.6708 24.6417 47.2475 24.9982 47.354C24.7203 47.694 24.4818 47.9861 24.2419 48.2797C25.1188 47.8619 25.7008 47.1178 26.3444 46.4475C25.8463 47.6312 25.0009 48.524 24.1606 49.4442C24.4307 49.2818 24.7007 49.1193 24.9694 48.9555C24.8816 49.2326 24.7492 49.4688 24.5578 49.6326C23.9928 50.1173 23.5131 50.6484 23.0569 51.2669C21.463 53.4253 20.4969 55.7982 20.2846 58.5082C20.1876 59.7574 20.084 61.0053 19.9831 62.2531C19.7013 59.0707 19.7852 55.9415 21.2992 53.0335C20.4655 54.0766 20.0945 55.3067 19.8035 56.5695C19.5152 57.8256 19.5361 59.1253 19.3487 60.395C19.2373 58.2625 19.1704 56.1354 20.0801 54.1244C18.9554 55.3231 19.114 56.9204 18.8165 58.5451C18.7221 57.6467 18.785 56.9231 18.768 56.1982C18.5452 56.9504 18.4783 57.7191 18.4337 58.4918C18.3682 58.2474 18.4075 57.9102 18.2699 57.7846C18.0733 57.6058 17.9789 57.4624 17.9579 57.1935C17.718 54.1107 18.4272 51.286 20.0683 48.7152C20.4262 48.1541 20.8666 47.638 20.7696 46.8216C17.9737 49.8074 16.6445 53.2874 17.0508 57.4351C16.4898 53.996 17.5752 50.9269 19.0157 47.9329L19.021 47.9397ZM8.69843 32.4385C8.25931 33.3819 8.35631 34.4223 8.20426 35.4626C8.05745 34.9137 8.2698 34.3635 7.967 33.7505C7.77038 34.5683 7.88049 35.2742 7.79267 35.965C7.58556 34.7554 7.32602 33.5621 7.44399 32.3184C7.6511 30.1258 8.41923 28.1311 9.39315 26.2102C10.662 23.7077 12.446 21.8496 15.221 21.2611C15.8973 21.1178 16.5593 21.0905 17.3458 21.4386C16.8896 21.5055 16.6039 21.1574 16.2565 21.4236C16.4741 21.6448 16.8123 21.582 17.0102 21.8728C16.7533 21.87 16.5383 21.7308 16.2499 21.9683C16.8385 22.1663 17.3209 22.4325 17.5673 23.0073C17.0967 22.5595 16.6104 22.2032 15.7492 22.4858C16.3168 22.7069 16.7939 22.7028 17.1256 23.2216C16.6629 23.0756 16.3207 22.7588 15.9039 22.8831C15.8397 23.1425 16.1346 23.0824 16.1477 23.2517C16.0297 23.3664 15.7781 23.2012 15.7204 23.5043C15.9275 23.7049 16.2316 23.6858 16.4793 23.8032C16.8057 23.9575 17.1295 24.1254 17.1295 24.5651C17.1295 24.9842 16.8123 25.1139 16.5056 25.2586C15.6706 25.6518 14.833 26.0423 14.0111 26.4628C12.1956 27.3912 10.8862 28.837 10.0577 30.7538C9.47705 32.0958 9.14279 33.498 9.13362 34.9793C9.13231 35.2428 9.27256 35.6974 8.87146 35.6947C8.53327 35.6919 8.67484 35.2592 8.6709 35.0202C8.65648 34.1642 8.63813 33.3055 8.70105 32.4385H8.69843ZM5.88676 11.6633C6.32719 12.8579 5.9156 14.0375 4.98493 14.7188C3.84978 15.5502 2.74871 14.854 1.63322 14.7434C1.56112 14.7365 1.49165 14.6437 1.43004 14.5823C-0.0839291 13.0627 0.0786095 9.80658 1.73415 8.46316C3.28745 7.20302 5.52629 7.13749 7.39549 8.31435C8.01026 8.70208 8.72596 9.05295 9.04841 9.7233C9.44165 10.5411 9.89388 11.3275 10.2832 12.1494C11.0985 13.8737 11.4603 15.6472 11.3515 17.5462C11.2689 16.2629 11.033 15.0219 10.451 13.8792C10.4968 14.5399 10.6568 15.1734 10.7525 15.8178C10.8455 16.4445 10.936 17.0848 10.9137 17.7142C10.8914 18.3408 10.9517 18.9962 10.6253 19.7689C10.8245 17.7674 10.7629 15.9694 10.0132 14.2573C10.0813 14.7188 10.1508 15.1789 10.2386 15.7728C9.97777 15.3018 10.0879 14.5932 9.82047 14.5809C9.20964 14.5536 9.27912 14.0648 9.13493 13.7713C8.32223 12.1207 7.16217 10.892 5.43978 10.3117C4.46848 9.98406 3.49586 10.4455 3.30187 11.3015C4.11981 10.9971 4.58121 11.1391 4.85123 11.8026C5.06882 12.3364 4.93774 12.817 4.61004 13.2675C4.28234 13.7167 3.77245 13.83 3.20618 14.0457C3.99528 14.3829 4.43964 13.8123 5.07931 13.4996C4.82764 14.1194 4.43309 14.3188 4.00577 14.4785C3.57451 14.6396 3.1236 14.5236 2.68186 14.5864C3.30187 14.9987 3.94678 14.9905 4.55761 14.6082C5.62067 13.9433 6.03882 12.9371 5.88807 11.6606L5.88676 11.6633ZM10.5624 40.0922C10.0918 38.6696 10.5794 37.3903 10.8796 36.2381C11.6241 33.371 13.4711 31.3258 16.1844 30.2746C17.4323 29.7913 18.6435 29.9374 19.6266 31.0077C20.1968 31.6276 20.3475 32.4426 20.0054 32.9969C19.6489 33.5758 18.962 33.7383 18.1218 33.3874C17.1072 32.9642 16.1149 33.0351 15.1279 33.4502C14.8618 33.5621 14.6167 33.6905 14.3139 33.5949C14.1435 33.5417 13.9102 33.5485 13.8564 33.741C13.7712 34.0482 14.0832 34.0045 14.2366 34.0782C14.4384 34.1738 14.6717 34.2366 14.7111 34.4946C14.7556 34.7922 14.5249 34.9356 14.3231 35.0694C14.1579 35.1786 13.9836 35.2796 13.8014 35.3506C13.0162 35.6537 12.425 36.2039 11.9191 36.8811C11.2348 37.7972 10.8612 38.8553 10.5624 40.0908V40.0922ZM12.6348 8.63928C12.0842 9.46936 12.0016 10.4373 11.8653 11.4613C11.7618 10.6612 12.0239 9.9513 11.999 9.14443C11.6857 9.51305 11.7146 9.9199 11.5953 10.294C11.3266 10.0305 11.6582 9.7233 11.4118 9.45024C11.1496 9.95676 11.3213 10.5056 11.168 11.0066C11.2715 10.4073 10.6201 10.2817 10.5218 9.79156C10.0879 7.63991 10.4654 5.68758 11.7421 3.92639C11.8889 3.72297 12.1367 3.55914 12.0593 3.12225C11.0421 3.6629 10.8114 4.74009 10.2504 5.75311C10.3291 4.89573 10.7747 4.33324 10.8298 3.65471C10.042 4.6377 9.76935 5.80909 9.63958 7.18664C9.48753 5.93469 9.78639 4.88617 9.95811 3.81717C9.36301 4.85341 9.27256 6.00296 9.25814 7.17026C9.06414 5.97838 9.28436 4.82337 9.53079 3.66426C8.94748 4.46294 8.95142 5.43774 8.74431 6.34564C8.62634 5.36674 8.67877 4.42608 9.17163 3.5605C9.23455 3.45128 9.28829 3.28335 9.2529 3.1755C9.05628 2.57069 9.62517 2.4328 9.84931 2.09148C9.95156 1.93584 10.1128 2.04643 10.1416 2.19115C10.3854 3.42125 10.5794 2.63622 10.8193 2.18705C10.9111 2.01639 11.071 1.85666 11.2374 1.76245C11.8811 1.39656 12.5391 1.05798 13.2535 0.677069C13.3111 1.5208 12.8353 2.05462 12.5076 2.71131C12.8956 2.64441 13.0424 2.36726 13.2286 2.19524C13.6283 2.64168 13.5366 3.10451 13.2679 3.57689C13.3334 3.61921 13.399 3.6629 13.4645 3.70522C13.5589 3.52228 13.6533 3.3407 13.7476 3.15775C13.1709 4.61858 12.8248 6.11081 12.3175 7.69179C12.7724 7.47198 12.9651 6.98458 13.4304 7.15933C13.3688 7.36822 13.1053 7.36822 13.1211 7.6481C13.4986 7.41054 13.6546 7.84333 14.0006 7.85016C12.8497 8.96967 12.4421 10.3322 12.3411 11.8367C12.0947 10.7295 12.5155 9.70418 12.6387 8.63928H12.6348ZM8.89112 49.8088C8.71285 49.1944 8.40481 48.666 8.17804 48.1049C7.58425 46.64 6.94589 45.1901 6.64703 43.6146C6.22757 41.4015 6.48449 39.3154 7.74024 37.4258C8.12561 36.8456 8.61716 36.4046 9.33155 36.3486C9.74052 36.3172 10.063 36.4838 10.2085 36.907C10.3343 37.2729 10.2334 37.5787 9.92403 37.8013C8.31568 38.9618 7.8202 40.6833 7.71402 42.5893C7.63668 43.9709 8.01157 45.2925 8.26849 46.6277C8.47297 47.6885 8.68401 48.748 8.89112 49.8088ZM5.99949 93.5053C5.99949 93.7948 6.00736 93.9286 5.99949 94.061C5.93395 95.0645 5.1632 95.8304 4.29414 95.7594C3.48538 95.6925 2.90732 94.9266 2.94926 93.9545C2.95713 93.7798 2.96237 93.6323 2.78803 93.5586C2.6137 93.4835 2.38562 93.4808 2.30435 93.6378C2.01991 94.1893 1.51656 94.6808 1.77347 95.5164C1.86785 95.2379 1.93208 95.0481 1.99631 94.8583C1.78658 95.5451 2.46951 96.2004 2.06709 96.8693C2.76444 97.6476 3.21404 98.707 4.3138 99.0292C5.18024 99.2831 6.0493 99.4415 6.96031 99.2777C7.63668 99.1562 8.28946 98.9418 8.95273 98.7684C7.07435 99.9794 4.07655 99.6668 2.13132 98.0844C0.520348 96.7738 0.179543 94.9116 1.19279 93.0493C1.44971 92.577 1.77872 92.2043 2.2624 91.9913C3.3425 91.5162 4.39245 92.0172 4.61922 93.0534C4.7136 93.4835 4.38197 93.7292 4.30594 94.0801C4.70967 94.1361 4.79749 93.7484 5.08849 93.5504C4.96527 94.2303 4.73195 94.6863 4.13685 94.8392C3.93629 94.8911 3.7187 95.0344 3.75278 95.2269C3.79211 95.4481 4.06737 95.4194 4.25744 95.4317C5.14747 95.4891 5.70718 94.9088 6.0008 93.5067L5.99949 93.5053ZM14.1553 72.1526C13.2377 71.1683 12.0986 71.0686 10.8862 71.1669C10.1442 71.227 9.83883 70.7314 10.0643 69.9955C10.2557 69.3716 10.6423 69.0985 11.2584 69.0712C11.9689 69.0398 12.522 69.3457 12.9992 69.8508C13.5943 70.4816 13.9351 71.2598 14.1553 72.154V72.1526ZM15.3966 20.6085C15.3796 20.5334 15.3638 20.4597 15.3468 20.3846C14.6967 20.7273 14.019 20.3328 13.3649 20.5744C13.3046 20.5962 13.2023 20.6454 13.184 20.6236C12.7095 20.0747 12.3647 20.6481 11.9898 20.7915C11.708 20.8993 11.4682 21.1219 11.0552 21.3936C11.8404 20.3942 12.6741 19.7088 13.5733 19.2719C14.4489 18.846 14.7202 18.8555 15.3888 19.2119C15.5644 19.3061 15.8095 19.2583 16.0153 19.276C16.0507 19.5259 15.6313 19.4208 15.7584 19.6761C15.8384 19.8358 16.0337 19.7689 16.1805 19.7757C16.3745 19.7853 16.5685 19.7785 16.7913 19.7785C16.6589 20.0146 16.3561 19.7866 16.288 20.0788C16.5501 20.2891 16.9276 20.1471 17.1741 20.386C17.1164 20.5157 16.8988 20.3601 16.887 20.5853C17.3143 20.8488 17.8609 20.9266 18.1585 21.4236C17.5267 21.0263 16.8608 20.8229 16.1162 20.8202C15.394 20.8174 14.7242 21.1164 14.0006 21.1L15.3953 20.6085H15.3966ZM10.873 40.9769C11.4485 44.715 12.1288 48.2414 12.8891 51.7515C11.8339 48.292 10.8245 44.8242 10.873 40.9769ZM13.1669 37.946C12.7501 41.1312 13.5615 44.2166 13.922 47.3404C13.1237 44.2617 12.5443 41.1612 13.1669 37.946ZM10.5467 45.8864C11.1313 48.7398 11.7657 51.5686 12.6374 54.336C11.5887 51.6082 10.9556 48.7712 10.5467 45.8864ZM9.46132 41.4315C9.8231 43.9531 10.2517 46.4625 10.6777 48.9732C10.0656 46.4953 9.55963 43.9996 9.46132 41.4315Z" fill="#323232"/>
</g>
<defs>
<clipPath id="clip0_18_11014">
<rect width="28" height="100" fill="white" transform="translate(28 198) rotate(-180)"/>
</clipPath>
<clipPath id="clip1_18_11014">
<rect width="28" height="100" fill="white" transform="matrix(-1 0 0 1 28 0)"/>
</clipPath>
</defs>
</svg>
