<svg width="28" height="200" viewBox="0 0 28 200" fill="none" xmlns="http://www.w3.org/2000/svg">
<g clip-path="url(#clip0_18_11015)">
<path d="M20.9925 11.9527C19.9583 12.8606 19.2976 14.0088 18.9752 15.3509C18.3775 17.8411 18.8992 20.2371 19.666 22.5772C20.6963 25.7228 21.467 28.897 21.1865 32.261C21.0764 33.5757 20.9833 34.8919 20.691 36.1793C20.5888 36.6271 20.6517 36.9862 20.9007 37.3903C22.3335 39.7126 22.3125 42.2069 21.5588 44.7395C20.9047 46.9376 19.9137 49.0005 19.0486 51.1125C18.5072 52.4355 18.1376 53.8158 17.667 55.1619C17.5385 55.5292 17.6709 55.6452 18.0144 55.678C19.6424 55.8309 20.9912 56.8316 22.5143 57.3067C22.7909 57.3927 22.8735 57.5825 22.5799 57.7791C21.8603 58.2611 21.4893 59.0119 21.1878 59.797C20.7618 60.9042 20.092 61.8121 19.2072 62.5493C18.9136 62.7937 18.8742 62.8866 19.2557 63.0845C20.2545 63.602 20.2467 64.0716 19.5061 64.929C18.5361 66.0512 17.4547 67.0315 16.347 67.9926C16.1871 68.1319 16.0062 68.278 15.9695 68.5852C16.8556 68.3845 17.5307 68.6725 18.0812 69.4139C18.6186 70.1375 18.5361 70.846 17.7876 71.3457C17.1964 71.7403 17.03 72.4475 16.7665 73.0482C15.769 75.32 15.6261 77.7461 15.7493 80.1967C15.8083 81.3763 15.8961 82.5559 16.1006 83.7218C16.2238 84.4277 16.254 84.4468 16.7783 84.0181C17.0719 83.7778 17.3734 83.5703 17.7417 83.4597C18.3512 83.2768 18.7694 83.517 18.8415 84.1915C18.9463 85.1895 18.8585 86.1889 18.7615 87.1841C18.5819 89.0341 18.772 90.8157 19.6253 92.4841C19.9163 93.0534 20.2899 93.5517 20.7487 93.9804C20.9086 94.1292 21.0751 94.3518 21.3045 94.2712C21.5339 94.1907 21.429 93.9135 21.4565 93.7251C21.7737 91.497 24.204 90.2109 25.9696 91.3509C27.6042 92.4049 28.9058 95.6187 26.8046 97.8195C24.8122 99.9056 22.4055 100.476 19.7525 99.6149C16.68 98.6168 14.4175 96.4488 12.6886 93.706C10.3973 90.0717 8.97509 86.0674 8.15322 81.7954C7.48471 78.3168 6.8162 74.8394 6.19881 71.3512C5.83965 69.3251 5.14231 67.4493 3.63095 66.0198C2.76845 65.2034 1.80239 64.686 0.588588 65.1092C0.157335 65.2594 0.107524 64.9304 0.0537817 64.6396C-0.176919 63.4136 0.339536 62.4429 1.14437 61.6551C1.95313 60.8632 2.93361 60.541 4.04779 60.9411C4.67828 61.1677 5.20654 61.5636 5.82654 62.122C5.71382 61.0871 5.6273 60.1806 5.51457 59.2782C5.27601 57.3805 4.51706 55.7107 3.41598 54.1967C3.00701 53.6342 2.60067 53.0703 2.19694 52.5037C1.81156 51.9631 1.67524 51.3665 1.80632 50.6989C1.88497 50.2961 2.03702 50.0354 2.48794 50.0449C3.02012 50.0545 3.01357 49.8333 2.71995 49.4415C1.52974 47.8578 0.740641 46.0706 0.32905 44.1074C-0.0746767 42.1742 0.158646 40.3106 0.939883 38.5139C0.993625 38.391 1.01198 38.2286 1.15485 38.1931C1.32001 38.1507 1.37376 38.3091 1.42619 38.4279C1.78535 39.2334 2.44337 39.7071 3.13809 40.159C3.65586 40.4949 4.15527 40.8676 4.63634 41.2581C4.9103 41.482 5.06497 41.5421 5.17901 41.1243C5.23144 40.9331 5.34286 40.7516 5.45559 40.5877C5.69022 40.2437 5.92617 40.1754 6.24207 40.5372C6.89223 41.2854 7.739 41.7714 8.61069 42.4117C8.64214 41.8178 8.6736 41.3141 8.69326 40.8089C8.70768 40.4225 8.71031 40.0375 8.80599 39.658C9.08257 38.5494 9.38012 38.3815 10.3986 38.832C10.4235 37.1254 10.1548 35.5608 8.97116 34.2939C8.7942 34.1041 8.57529 34.0222 8.3577 33.9184C7.13866 33.3341 6.82013 32.1067 7.62496 30.994C8.55825 29.7052 9.84284 29.3817 11.3057 29.6561C12.0424 29.794 12.7345 30.0807 13.365 30.5053C13.6795 30.7169 13.8198 30.695 13.8224 30.2582C13.8303 28.9721 13.5485 27.7829 12.8262 26.718C12.5195 26.2648 12.0227 26.1883 11.5875 26.0067C10.3554 25.492 10.2688 25.3664 10.5939 24.0517C10.6503 23.825 10.5913 23.7691 10.4157 23.7213C10.0277 23.6162 9.63704 23.5547 9.26215 23.7472C8.78895 23.9916 8.63559 23.7663 8.58316 23.3062C8.38392 21.5683 9.19792 20.0487 10.4025 19.6596C10.5179 19.6228 10.67 19.5368 10.7093 19.4344C11.1431 18.2916 12.121 18.3517 13.0163 18.3476C13.8801 18.3449 14.6391 18.8009 15.4858 19.2965C15.069 17.9244 14.7819 16.6492 14.8763 15.3208C14.9327 14.5276 15.0179 13.7371 15.0769 12.9439C15.2066 11.2073 14.9799 9.59082 13.7241 8.27744C13.1552 7.68082 13.3636 7.01594 14.2301 6.76609C14.7793 6.60772 14.8645 6.44526 14.5185 5.98107C13.1736 4.17619 13.306 2.27848 14.2235 0.338439C14.3625 0.046273 14.5185 -0.124385 14.8226 0.118632C15.5684 0.717982 16.5279 0.951442 17.2226 1.63817C17.3734 1.78835 17.5281 1.81565 17.6736 1.63817C18.055 1.17125 18.3224 1.5112 18.5859 1.78425C20.3725 3.63828 20.7067 5.37899 19.7538 7.84192C19.6896 8.00985 19.6214 8.17641 19.5139 8.44946C20.1995 8.12453 20.7303 7.70266 21.3504 7.45555C23.4581 6.61591 25.5672 7.03778 26.9553 8.62149C28.5715 10.4646 28.2674 13.9078 26.3537 15.4123C25.3693 16.1864 23.5001 16.2847 22.4278 15.6185C21.315 14.9276 20.7775 13.632 20.9925 12.1548C21.0017 12.0906 20.9925 12.0224 20.9925 11.9568V11.9527ZM15.2735 61.8326C14.3795 62.8279 13.8224 64.047 13.1946 65.2184C13.1067 65.3468 12.9992 65.4642 12.9324 65.6034C11.1825 69.2528 10.3593 73.137 10.3619 77.1986C10.3645 80.9312 10.8915 84.586 12.1852 88.092C13.361 91.2799 15.0179 94.1442 17.5163 96.4037C19.0302 97.7731 20.7985 98.3847 22.8184 97.9793H21.7279C22.2771 97.6393 22.8329 97.8305 23.4162 97.5123C22.8997 97.4591 22.5288 97.7117 22.1421 97.5233C22.302 97.2762 22.5537 97.3717 22.7831 97.1956C21.8576 97.2625 21.0882 97.0318 20.3974 96.5553C19.3501 95.8331 18.595 94.846 18.0786 93.6596C17.1833 91.5994 17.2174 89.4669 17.6329 87.3056C17.8177 86.3445 18.0996 85.412 18.3683 84.4755C18.4351 84.2406 18.4836 83.958 18.2385 83.7887C18.0026 83.6263 17.7876 83.756 17.5792 83.9048C16.9094 84.3826 16.4362 84.9956 16.1753 85.8148C15.921 86.6148 15.9158 87.4258 15.9459 88.2436C15.9721 88.9303 16.0429 89.6157 16.094 90.3024C15.672 89.2225 15.3272 88.1316 15.0048 87.0326C14.8724 86.5834 15.0271 86.5916 15.0795 86.0865C15.1319 85.5799 15.4504 85.0516 15.1463 84.5205C15.1188 84.4727 15.1083 84.414 15.0873 84.3512C14.9772 84.4604 15.09 84.6529 14.8789 84.7239C14.6417 84.3266 14.7269 83.8297 14.5578 83.4024C14.4385 83.5375 14.5958 83.7792 14.4005 83.8529C14.1645 83.7177 14.3376 83.3355 14.099 83.3095C13.6625 83.2631 13.9941 83.7669 13.7136 83.9567C13.441 82.7743 13.0491 81.6685 12.8957 80.493C12.7305 79.2247 12.6794 77.9495 12.7764 76.6812C12.8223 76.0832 12.4133 75.6354 12.4317 75.1357C12.5287 72.5649 13.0071 70.0801 14.2484 67.8111C14.5014 67.3482 14.7098 66.8458 15.107 66.4868C14.8724 67.1858 14.5709 67.8411 14.2982 68.5087C14.0243 69.1777 13.7634 69.8535 13.5275 70.5375C13.3007 71.1955 13.1513 71.8755 13.1251 72.5772C13.2509 72.2345 13.3309 71.8809 13.4187 71.53C13.749 70.1989 14.2629 68.9483 14.9536 67.7783C15.0493 67.6158 15.1293 67.3728 15.3652 67.4001C15.63 67.4315 15.6235 67.4534 15.7008 67.3728C15.7991 67.2732 15.8529 67.0738 16.0704 67.1926C16.0914 67.4438 15.7467 67.5517 15.807 67.8766C17.1217 66.8827 18.1572 65.6703 19.2504 64.3433C18.6435 64.5877 18.3394 65.0764 17.8309 65.2867C18.0616 64.9563 18.2936 64.6259 18.5597 64.2436C18.2123 64.3433 18.093 64.7051 17.6932 64.6764C17.9095 64.1918 18.3486 63.961 18.6186 63.5651C18.1835 63.8545 17.7417 64.0033 17.161 63.7808C17.8164 62.5179 19.2439 62.1643 20.0107 61.0517C20.7697 59.9485 21.0554 58.53 22.2011 57.6603C21.3582 57.3149 20.5691 56.9914 19.78 56.6692C16.8962 55.4937 14.5158 56.3647 12.9927 59.1471C12.8957 59.3232 12.8721 59.5867 12.5352 59.629C12.6427 59.1812 12.589 58.7867 12.4474 58.4003C12.2835 57.9539 12.0502 57.8283 11.6714 58.1737C11.2441 58.5628 10.7932 58.9177 10.4301 59.3819C9.02621 61.1773 8.50451 63.2729 8.45601 65.5365C8.42324 67.0711 8.79158 68.5592 8.94232 70.0733C8.96722 70.3204 8.99213 70.573 8.97246 70.8187C8.94756 71.1286 8.82828 71.4099 8.48485 71.4549C8.12962 71.5014 7.98674 71.2406 7.89106 70.9416C7.77964 70.5935 7.71541 70.233 7.73245 69.8671C7.92383 65.7441 7.59744 61.6414 7.23697 57.5443C7.11244 56.1353 6.71133 54.7824 5.97729 53.5659C6.24993 54.4615 6.67332 55.3066 6.77425 56.2596C6.62875 56.078 6.54355 55.8718 6.45573 55.6684C6.0035 54.609 5.56832 53.5359 4.91947 52.5857C4.41612 51.8484 3.87214 51.133 2.75141 50.931C4.03337 52.1051 5.10561 53.2451 5.80557 54.7155C6.50816 56.1927 6.83062 57.7532 6.925 59.3806C6.49767 58.1955 6.38232 56.919 5.88946 55.7517C5.2629 54.269 4.47511 53.0621 3.85641 52.7563C6.14638 55.5674 6.98529 59.8775 6.66808 61.3943C6.27484 57.319 4.4502 53.2642 2.47221 52.1829C2.68456 52.4751 2.84841 52.714 3.02537 52.9434C4.63503 55.039 5.86063 57.3067 6.07953 60.0577C6.17784 61.3015 6.20406 62.5562 6.47015 63.7822C6.49767 63.9078 6.51209 64.0607 6.27877 64.174C5.70595 62.9343 4.99943 61.7985 3.47497 61.3779C3.6847 61.7875 4.10284 61.8326 4.171 62.2476C3.58246 62.1125 3.13809 61.5295 2.44206 61.8558C3.24558 62.3077 3.97045 62.7473 4.49608 63.4736C3.67552 63.1255 3.02274 62.3391 2.03571 62.4415C2.98342 62.8238 3.7817 63.4026 4.42661 64.2122C3.83937 63.9269 3.31112 63.5378 2.7383 63.2415C2.05668 62.8893 1.40259 63.0736 1.07883 63.6238C2.57314 63.2743 4.19591 64.1412 4.83296 65.699C4.27718 65.2457 3.87345 64.7379 3.33209 64.3993C2.52333 63.8941 2.04489 63.8286 1.61101 64.2368C4.89981 65.1611 5.88946 67.9845 6.76246 71.1286C6.67988 69.6446 6.3548 68.4118 5.97729 67.1912C7.61579 70.7477 7.77308 74.5978 7.99461 78.4383C8.10472 76.4791 7.84387 74.5159 8.21875 72.5594C8.30658 76.7549 8.21482 80.9654 9.44435 85.0284C9.36833 84.5178 9.25429 84.0126 9.1586 83.5048C8.58971 80.4985 8.37605 77.4703 8.69589 74.4148C8.72603 74.124 8.74832 73.81 9.0734 73.4687C9.00524 74.6551 8.90693 75.6914 8.89906 76.7276C8.8912 77.7488 8.94756 78.7728 9.02359 79.7926C9.10092 80.8343 9.19006 81.8787 9.41289 82.8999C9.63573 83.9198 9.84546 84.9437 10.1129 85.9513C10.375 86.937 10.6765 87.9118 11.0081 88.8743C11.3398 89.8355 11.7291 90.7748 12.3032 91.6144C10.2282 86.8032 8.8427 81.8542 9.3041 76.516C9.31065 77.7911 9.4496 79.0717 9.54529 80.3537C9.64228 81.6603 9.8743 82.9464 10.2531 84.2065C9.53349 81.2958 9.49154 78.3536 9.76812 75.3937C10.0067 75.9371 9.87692 76.5091 9.97392 77.0662C9.92804 73.8455 10.4393 70.7259 11.5128 67.7087C12.5732 64.7297 13.9797 61.9787 16.3772 59.9062C17.4166 59.0065 18.6082 58.4181 20.0081 58.0412C19.9176 58.1819 19.9019 58.2337 19.8691 58.2501C19.7132 58.3293 19.5519 58.3989 19.392 58.4727C17.7509 59.2345 16.3129 60.2666 15.2709 61.8258L15.2735 61.8326ZM8.97902 47.9424C10.746 50.8545 11.91 53.9332 11.4879 57.4651C12.0922 54.6349 11.3293 51.9686 10.5192 49.2981C11.1261 50.3958 11.4905 51.5685 11.7933 52.77C12.0961 53.9796 12.2101 55.2056 12.1826 56.4521C12.3661 54.5721 12.2088 52.7317 11.6806 50.9228C11.5796 50.576 11.3568 50.1896 11.6806 49.6777C12.2849 51.6996 12.8079 53.6069 12.7187 55.6398C12.7961 54.4165 12.7921 53.1987 12.7187 51.9767C13.2063 53.2874 13.1683 54.6691 13.247 56.037C13.3191 55.0691 13.4724 54.1107 13.4462 53.1359C13.8513 54.4451 13.5996 55.7776 13.5917 57.106C13.9601 56.0507 14.0649 54.9448 14.1685 53.8472C14.3638 51.772 14.1685 49.7568 13.1238 47.911C12.7633 47.2748 12.5156 47.2379 12.0424 47.8031C11.8169 48.0735 11.6491 48.397 11.4132 48.7629C11.033 46.3437 10.185 44.2917 8.42193 42.7571C7.71934 42.1455 6.95777 41.6076 6.23551 41.0205C5.8934 40.742 5.73479 40.9004 5.61157 41.2403C5.47656 41.613 5.47525 41.9953 5.51851 42.3844C5.53686 42.5428 5.66794 42.7408 5.32975 42.8882C4.59177 41.0779 2.69242 40.6601 1.39866 39.2798C1.44978 40.8662 2.25461 41.9721 3.10663 43.2404C2.51415 43.0124 2.40536 42.5128 2.03702 42.3121C1.94002 42.5878 2.27428 42.7148 2.15499 43.0152C1.52057 42.4964 1.35541 41.6895 0.85337 40.8881C1.10373 42.1755 1.78666 43.0493 2.12091 44.1046C1.83647 43.7374 1.55334 43.3701 1.26889 43.0015C1.22564 43.0356 1.18238 43.0698 1.14043 43.1039C1.63592 43.8685 2.13009 44.6316 2.62557 45.3962C1.96231 45.0276 1.63198 44.36 1.12602 43.8644C1.767 45.2897 2.87987 46.3491 3.82626 47.5806C3.47235 47.6734 3.35831 47.2502 3.00177 47.3567C3.27966 47.6967 3.51823 47.9888 3.7581 48.2824C2.88118 47.8646 2.29918 47.1205 1.65558 46.4502C2.15368 47.6339 2.99915 48.5267 3.83937 49.4469C3.56935 49.2845 3.29932 49.122 3.03061 48.9582C3.11843 49.2353 3.25082 49.4715 3.4422 49.6353C4.00715 50.12 4.48691 50.6511 4.94307 51.2695C6.537 53.428 7.50306 55.8009 7.71541 58.5109C7.81241 59.7601 7.91596 61.008 8.01689 62.2558C8.29871 59.0734 8.21482 55.9442 6.70085 53.0362C7.53452 54.0793 7.90547 55.3094 8.19647 56.5722C8.48485 57.8283 8.46387 59.128 8.65132 60.3977C8.76274 58.2652 8.82959 56.1381 7.91989 54.127C9.04456 55.3257 8.88595 56.9231 9.1835 58.5478C9.27788 57.6494 9.21496 56.9258 9.232 56.2009C9.45484 56.9531 9.52169 57.7218 9.56626 58.4945C9.6318 58.2501 9.59247 57.9129 9.73011 57.7873C9.92673 57.6085 10.0211 57.4651 10.0421 57.1962C10.282 54.1134 9.57281 51.2887 7.93169 48.7179C7.57384 48.1567 7.13341 47.6407 7.23041 46.8243C10.0263 49.8101 11.3555 53.2901 10.9492 57.4378C11.5102 53.9987 10.4248 50.9296 8.98426 47.9356L8.97902 47.9424ZM19.3016 32.4412C19.7407 33.3846 19.6437 34.4249 19.7957 35.4653C19.9426 34.9164 19.7302 34.3662 20.033 33.7532C20.2296 34.571 20.1195 35.2769 20.2073 35.9677C20.4144 34.7581 20.674 33.5648 20.556 32.3211C20.3489 30.1285 19.5808 28.1338 18.6068 26.2129C17.338 23.7104 15.554 21.8522 12.779 21.2638C12.1027 21.1205 11.4407 21.0932 10.6542 21.4413C11.1104 21.5082 11.3961 21.1601 11.7435 21.4263C11.5259 21.6475 11.1877 21.5847 10.9898 21.8755C11.2467 21.8727 11.4617 21.7335 11.7501 21.971C11.1615 22.169 10.6791 22.4352 10.4327 23.01C10.9033 22.5622 11.3896 22.2058 12.2508 22.4885C11.6832 22.7096 11.2061 22.7055 10.8744 23.2243C11.3371 23.0782 11.6793 22.7615 12.0961 22.8857C12.1603 23.1451 11.8654 23.0851 11.8523 23.2544C11.9703 23.369 12.2219 23.2039 12.2796 23.5069C12.0725 23.7076 11.7684 23.6885 11.5207 23.8059C11.1943 23.9602 10.8705 24.1281 10.8705 24.5677C10.8705 24.9869 11.1877 25.1166 11.4944 25.2613C12.3294 25.6545 13.167 26.045 13.9889 26.4655C15.8044 27.3938 17.1138 28.8397 17.9423 30.7565C18.523 32.0985 18.8572 33.5007 18.8664 34.982C18.8677 35.2455 18.7274 35.7001 19.1285 35.6974C19.4667 35.6946 19.3252 35.2618 19.3291 35.0229C19.3435 34.1669 19.3619 33.3082 19.2989 32.4412H19.3016ZM22.1132 11.666C21.6728 12.8606 22.0844 14.0402 23.0151 14.7215C24.1502 15.5529 25.2513 14.8566 26.3668 14.7461C26.4389 14.7392 26.5083 14.6464 26.57 14.585C28.0839 13.0654 27.9214 9.80926 26.2659 8.46585C24.7126 7.20571 22.4737 7.14018 20.6045 8.31703C19.9897 8.70477 19.274 9.05564 18.9516 9.72598C18.5583 10.5438 18.1061 11.3302 17.7168 12.1521C16.9015 13.8764 16.5397 15.6499 16.6485 17.5489C16.7311 16.2656 16.967 15.0246 17.549 13.8818C17.5032 14.5426 17.3432 15.1761 17.2475 15.8205C17.1545 16.4472 17.064 17.0875 17.0863 17.7169C17.1086 18.3435 17.0483 18.9988 17.3747 19.7716C17.1755 17.7701 17.2371 15.9721 17.9868 14.26C17.9187 14.7215 17.8492 15.1816 17.7614 15.7755C18.0222 15.3044 17.9121 14.5959 18.1795 14.5836C18.7904 14.5563 18.7209 14.0675 18.8651 13.774C19.6778 12.1234 20.8378 10.8946 22.5602 10.3144C23.5315 9.98675 24.5041 10.4482 24.6981 11.3042C23.8802 10.9998 23.4188 11.1418 23.1488 11.8053C22.9312 12.3391 23.0623 12.8197 23.39 13.2702C23.7177 13.7194 24.2276 13.8327 24.7938 14.0484C24.0047 14.3856 23.5604 13.8149 22.9207 13.5023C23.1724 14.1221 23.5669 14.3215 23.9942 14.4812C24.4255 14.6423 24.8764 14.5262 25.3181 14.589C24.6981 15.0014 24.0532 14.9932 23.4424 14.6109C22.3793 13.946 21.9612 12.9398 22.1119 11.6633L22.1132 11.666ZM17.4376 40.0949C17.9082 38.6723 17.4206 37.393 17.1204 36.2407C16.3759 33.3737 14.5289 31.3285 11.8156 30.2773C10.5677 29.794 9.35653 29.9401 8.37343 31.0104C7.80323 31.6303 7.65249 32.4453 7.99461 32.9996C8.35115 33.5785 9.03801 33.7409 9.87823 33.3901C10.8928 32.9668 11.8851 33.0378 12.8721 33.4529C13.1382 33.5648 13.3833 33.6932 13.6861 33.5976C13.8565 33.5443 14.0898 33.5512 14.1436 33.7437C14.2288 34.0509 13.9168 34.0072 13.7634 34.0809C13.5616 34.1765 13.3283 34.2393 13.2889 34.4973C13.2444 34.7949 13.4751 34.9383 13.6769 35.0721C13.8421 35.1813 14.0164 35.2823 14.1986 35.3533C14.9838 35.6564 15.575 36.2066 16.0809 36.8838C16.7652 37.7999 17.1388 38.8579 17.4376 40.0935V40.0949ZM15.3652 8.64196C15.9158 9.47204 15.9984 10.44 16.1347 11.464C16.2382 10.6639 15.9761 9.95398 16.001 9.14711C16.3143 9.51573 16.2854 9.92258 16.4047 10.2967C16.6734 10.0332 16.3418 9.72598 16.5882 9.45293C16.8504 9.95944 16.6787 10.5083 16.832 11.0093C16.7285 10.41 17.3799 10.2844 17.4782 9.79425C17.9121 7.64259 17.5346 5.69027 16.2579 3.92908C16.1111 3.72566 15.8633 3.56182 15.9407 3.12494C16.9579 3.66558 17.1886 4.74277 17.7496 5.7558C17.6709 4.89842 17.2253 4.33593 17.1702 3.65739C17.958 4.64038 18.2306 5.81178 18.3604 7.18932C18.5125 5.93738 18.2136 4.88886 18.0419 3.81986C18.637 4.85609 18.7274 6.00564 18.7419 7.17294C18.9359 5.98107 18.7156 4.82606 18.4692 3.66695C19.0525 4.46563 19.0486 5.44042 19.2557 6.34832C19.3737 5.36943 19.3212 4.42877 18.8284 3.56319C18.7655 3.45397 18.7117 3.28604 18.7471 3.17818C18.9437 2.57337 18.3748 2.43548 18.1507 2.09417C18.0484 1.93853 17.8872 2.04911 17.8584 2.19383C17.6146 3.42393 17.4206 2.63891 17.1807 2.18973C17.0889 2.01908 16.929 1.85934 16.7626 1.76514C16.1189 1.39925 15.4609 1.06066 14.7465 0.679755C14.6889 1.52349 15.1647 2.0573 15.4924 2.714C15.1044 2.6471 14.9576 2.36995 14.7714 2.19793C14.3717 2.64437 14.4634 3.10719 14.7321 3.57957C14.6666 3.62189 14.601 3.66558 14.5355 3.70791C14.4411 3.52496 14.3467 3.34338 14.2524 3.16044C14.8291 4.62127 15.1752 6.1135 15.6825 7.69447C15.2276 7.47467 15.0349 6.98727 14.5696 7.16202C14.6312 7.3709 14.8947 7.3709 14.8789 7.65078C14.5014 7.41323 14.3454 7.84602 13.9994 7.85284C15.1503 8.97236 15.5579 10.3349 15.6589 11.8394C15.9053 10.7322 15.4845 9.70687 15.3613 8.64196H15.3652ZM19.1089 49.8114C19.2872 49.1971 19.5952 48.6687 19.822 48.1076C20.4158 46.6427 21.0541 45.1928 21.353 43.6173C21.7724 41.4042 21.5155 39.318 20.2598 37.4285C19.8744 36.8483 19.3828 36.4073 18.6685 36.3513C18.2595 36.3199 17.937 36.4865 17.7915 36.9097C17.6657 37.2756 17.7666 37.5814 18.076 37.804C19.6843 38.9644 20.1798 40.686 20.286 42.5919C20.3633 43.9736 19.9884 45.2952 19.7315 46.6304C19.527 47.6912 19.316 48.7506 19.1089 49.8114ZM22.0005 93.508C22.0005 93.7975 21.9926 93.9313 22.0005 94.0637C22.066 95.0672 22.8368 95.8331 23.7059 95.7621C24.5146 95.6952 25.0927 94.9293 25.0507 93.9572C25.0429 93.7824 25.0376 93.635 25.212 93.5613C25.3863 93.4862 25.6144 93.4835 25.6957 93.6405C25.9801 94.192 26.4834 94.6835 26.2265 95.5191C26.1321 95.2405 26.0679 95.0508 26.0037 94.861C26.2134 95.5477 25.5305 96.2031 25.9329 96.872C25.2356 97.6502 24.786 98.7097 23.6862 99.0319C22.8198 99.2858 21.9507 99.4442 21.0397 99.2804C20.3633 99.1589 19.7105 98.9445 19.0473 98.7711C20.9256 99.9821 23.9235 99.6695 25.8687 98.0871C27.4797 96.7765 27.8205 94.9143 26.8072 93.052C26.5503 92.5797 26.2213 92.2069 25.7376 91.994C24.6575 91.5188 23.6075 92.0199 23.3808 93.0561C23.2864 93.4862 23.618 93.7319 23.6941 94.0828C23.2903 94.1388 23.2025 93.751 22.9115 93.5531C23.0347 94.233 23.2681 94.689 23.8632 94.8419C24.0637 94.8938 24.2813 95.0371 24.2472 95.2296C24.2079 95.4508 23.9326 95.4221 23.7426 95.4344C22.8525 95.4918 22.2928 94.9115 21.9992 93.5094L22.0005 93.508ZM13.8447 72.1553C14.7623 71.171 15.9014 71.0713 17.1138 71.1696C17.8558 71.2297 18.1612 70.7341 17.9357 69.9982C17.7443 69.3743 17.3577 69.1012 16.7416 69.0739C16.0311 69.0425 15.478 69.3484 15.0008 69.8535C14.4057 70.4842 14.0649 71.2625 13.8447 72.1567V72.1553ZM12.6034 20.6112C12.6204 20.5361 12.6362 20.4624 12.6532 20.3873C13.3033 20.73 13.981 20.3354 14.6351 20.5771C14.6954 20.5989 14.7977 20.6481 14.816 20.6262C15.2905 20.0774 15.6353 20.6508 16.0102 20.7942C16.292 20.902 16.5318 21.1246 16.9448 21.3962C16.1596 20.3969 15.3259 19.7115 14.4267 19.2746C13.5511 18.8487 13.2798 18.8582 12.6112 19.2146C12.4356 19.3088 12.1905 19.261 11.9847 19.2787C11.9493 19.5286 12.3687 19.4234 12.2416 19.6787C12.1616 19.8385 11.9663 19.7716 11.8195 19.7784C11.6255 19.788 11.4315 19.7811 11.2087 19.7811C11.3411 20.0173 11.6439 19.7893 11.712 20.0815C11.4499 20.2917 11.0724 20.1498 10.8259 20.3887C10.8836 20.5184 11.1012 20.3627 11.113 20.588C10.6857 20.8515 10.1391 20.9293 9.84153 21.4263C10.4733 21.029 11.1392 20.8256 11.8838 20.8228C12.606 20.8201 13.2758 21.1191 13.9994 21.1027L12.6047 20.6112H12.6034ZM17.127 40.9796C16.5515 44.7177 15.8712 48.2441 15.1109 51.7542C16.1661 48.2946 17.1755 44.8269 17.127 40.9796ZM14.8331 37.9487C15.2499 41.1338 14.4385 44.2193 14.078 47.3431C14.8763 44.2644 15.4557 41.1639 14.8331 37.9487ZM17.4533 45.889C16.8687 48.7424 16.2343 51.5713 15.3626 54.3387C16.4113 51.6109 17.0444 48.7738 17.4533 45.889ZM18.5387 41.4342C18.1769 43.9558 17.7483 46.4652 17.3223 48.9759C17.9344 46.498 18.4404 44.0023 18.5387 41.4342Z" fill="#323232"/>
</g>
<g clip-path="url(#clip1_18_11015)">
<path d="M20.9925 188.047C19.9583 187.139 19.2976 185.991 18.9752 184.649C18.3775 182.159 18.8992 179.763 19.666 177.423C20.6963 174.277 21.467 171.103 21.1865 167.739C21.0764 166.424 20.9833 165.108 20.691 163.821C20.5888 163.373 20.6517 163.014 20.9007 162.61C22.3334 160.287 22.3125 157.793 21.5588 155.26C20.9047 153.062 19.9137 151 19.0486 148.887C18.5072 147.565 18.1376 146.184 17.667 144.838C17.5385 144.471 17.6709 144.355 18.0144 144.322C19.6424 144.169 20.9912 143.168 22.5143 142.693C22.7909 142.607 22.8735 142.417 22.5799 142.221C21.8602 141.739 21.4893 140.988 21.1878 140.203C20.7618 139.096 20.092 138.188 19.2072 137.451C18.9136 137.206 18.8742 137.113 19.2557 136.915C20.2545 136.398 20.2467 135.928 19.506 135.071C18.5361 133.949 17.4546 132.969 16.347 132.007C16.1871 131.868 16.0062 131.722 15.9695 131.415C16.8556 131.616 17.5307 131.327 18.0812 130.586C18.6186 129.863 18.5361 129.154 17.7876 128.654C17.1964 128.26 17.0299 127.553 16.7665 126.952C15.769 124.68 15.6261 122.254 15.7493 119.803C15.8083 118.624 15.8961 117.444 16.1006 116.278C16.2238 115.572 16.254 115.553 16.7783 115.982C17.0719 116.222 17.3734 116.43 17.7417 116.54C18.3512 116.723 18.7694 116.483 18.8415 115.809C18.9463 114.811 18.8585 113.811 18.7615 112.816C18.5819 110.966 18.772 109.184 19.6253 107.516C19.9163 106.947 20.2899 106.448 20.7487 106.02C20.9086 105.871 21.0751 105.648 21.3045 105.729C21.5339 105.809 21.429 106.086 21.4565 106.275C21.7737 108.503 24.204 109.789 25.9696 108.649C27.6042 107.595 28.9058 104.381 26.8046 102.18C24.8122 100.094 22.4055 99.5237 19.7525 100.385C16.68 101.383 14.4175 103.551 12.6886 106.294C10.3973 109.928 8.97508 113.933 8.15321 118.205C7.4847 121.683 6.81619 125.161 6.19881 128.649C5.83965 130.675 5.1423 132.551 3.63095 133.98C2.76844 134.797 1.80238 135.314 0.588582 134.891C0.157329 134.741 0.107519 135.07 0.053776 135.36C-0.176925 136.586 0.339531 137.557 1.14436 138.345C1.95313 139.137 2.9336 139.459 4.04778 139.059C4.67828 138.832 5.20653 138.436 5.82654 137.878C5.71381 138.913 5.6273 139.819 5.51457 140.722C5.276 142.62 4.51705 144.289 3.41598 145.803C3.00701 146.366 2.60066 146.93 2.19694 147.496C1.81156 148.037 1.67524 148.634 1.80632 149.301C1.88496 149.704 2.03702 149.965 2.48793 149.955C3.02012 149.946 3.01356 150.167 2.71994 150.559C1.52974 152.142 0.740637 153.929 0.329046 155.893C-0.0746804 157.826 0.158642 159.689 0.939879 161.486C0.993622 161.609 1.01197 161.771 1.15485 161.807C1.32001 161.849 1.37375 161.691 1.42619 161.572C1.78535 160.767 2.44337 160.293 3.13809 159.841C3.65586 159.505 4.15527 159.132 4.63633 158.742C4.91029 158.518 5.06497 158.458 5.17901 158.876C5.23144 159.067 5.34286 159.248 5.45558 159.412C5.69022 159.756 5.92616 159.825 6.24206 159.463C6.89222 158.715 7.739 158.229 8.61068 157.588C8.64214 158.182 8.6736 158.686 8.69326 159.191C8.70768 159.577 8.7103 159.962 8.80599 160.342C9.08257 161.451 9.38012 161.619 10.3986 161.168C10.4235 162.875 10.1548 164.439 8.97115 165.706C8.79419 165.896 8.57529 165.978 8.3577 166.082C7.13865 166.666 6.82013 167.893 7.62496 169.006C8.55825 170.295 9.84283 170.618 11.3057 170.344C12.0424 170.206 12.7345 169.919 13.365 169.495C13.6795 169.283 13.8198 169.305 13.8224 169.742C13.8303 171.028 13.5485 172.217 12.8262 173.282C12.5195 173.735 12.0227 173.812 11.5875 173.993C10.3554 174.508 10.2688 174.634 10.5939 175.948C10.6503 176.175 10.5913 176.231 10.4157 176.279C10.0277 176.384 9.63704 176.445 9.26215 176.253C8.78895 176.008 8.63559 176.234 8.58316 176.694C8.38391 178.432 9.19792 179.951 10.4025 180.34C10.5179 180.377 10.6699 180.463 10.7093 180.566C11.1431 181.708 12.121 181.648 13.0163 181.652C13.8801 181.655 14.6391 181.199 15.4858 180.704C15.069 182.076 14.7819 183.351 14.8763 184.679C14.9327 185.472 15.0179 186.263 15.0769 187.056C15.2066 188.793 14.9799 190.409 13.7241 191.723C13.1552 192.319 13.3636 192.984 14.2301 193.234C14.7793 193.392 14.8645 193.555 14.5185 194.019C13.1736 195.824 13.306 197.722 14.2235 199.662C14.3625 199.954 14.5185 200.124 14.8226 199.881C15.5684 199.282 16.5279 199.049 17.2226 198.362C17.3734 198.212 17.5281 198.184 17.6736 198.362C18.055 198.829 18.3224 198.489 18.5859 198.216C20.3725 196.362 20.7067 194.621 19.7538 192.158C19.6896 191.99 19.6214 191.824 19.5139 191.551C20.1995 191.875 20.7303 192.297 21.3504 192.544C23.4581 193.384 25.5672 192.962 26.9553 191.379C28.5715 189.535 28.2674 186.092 26.3537 184.588C25.3693 183.814 23.5001 183.715 22.4278 184.382C21.315 185.072 20.7775 186.368 20.9925 187.845C21.0017 187.909 20.9925 187.978 20.9925 188.043L20.9925 188.047ZM15.2735 138.167C14.3795 137.172 13.8224 135.953 13.1945 134.782C13.1067 134.653 12.9992 134.536 12.9324 134.397C11.1825 130.747 10.3593 126.863 10.3619 122.801C10.3645 119.069 10.8915 115.414 12.1852 111.908C13.361 108.72 15.0179 105.856 17.5163 103.596C19.0302 102.227 20.7985 101.615 22.8184 102.021L21.7279 102.021C22.2771 102.361 22.8329 102.17 23.4162 102.488C22.8997 102.541 22.5288 102.288 22.1421 102.477C22.302 102.724 22.5537 102.628 22.783 102.804C21.8576 102.738 21.0882 102.968 20.3974 103.445C19.3501 104.167 18.595 105.154 18.0786 106.34C17.1833 108.401 17.2174 110.533 17.6329 112.694C17.8177 113.656 18.0996 114.588 18.3683 115.525C18.4351 115.759 18.4836 116.042 18.2385 116.211C18.0026 116.374 17.7876 116.244 17.5792 116.095C16.9094 115.617 16.4362 115.004 16.1753 114.185C15.921 113.385 15.9158 112.574 15.9459 111.756C15.9721 111.07 16.0429 110.384 16.094 109.698C15.672 110.778 15.3272 111.868 15.0048 112.967C14.8724 113.417 15.027 113.408 15.0795 113.914C15.1319 114.42 15.4504 114.948 15.1463 115.479C15.1188 115.527 15.1083 115.586 15.0873 115.649C14.9772 115.54 15.09 115.347 14.8789 115.276C14.6417 115.673 14.7269 116.17 14.5578 116.598C14.4385 116.462 14.5958 116.221 14.4005 116.147C14.1645 116.282 14.3376 116.665 14.099 116.69C13.6625 116.737 13.9941 116.233 13.7136 116.043C13.441 117.226 13.049 118.332 12.8957 119.507C12.7305 120.775 12.6794 122.05 12.7764 123.319C12.8223 123.917 12.4133 124.365 12.4317 124.864C12.5287 127.435 13.0071 129.92 14.2484 132.189C14.5014 132.652 14.7098 133.154 15.107 133.513C14.8724 132.814 14.5709 132.159 14.2982 131.491C14.0243 130.822 13.7634 130.147 13.5275 129.463C13.3007 128.804 13.1513 128.125 13.1251 127.423C13.2509 127.765 13.3309 128.119 13.4187 128.47C13.749 129.801 14.2628 131.052 14.9536 132.222C15.0493 132.384 15.1293 132.627 15.3652 132.6C15.63 132.568 15.6235 132.547 15.7008 132.627C15.7991 132.727 15.8528 132.926 16.0704 132.807C16.0914 132.556 15.7467 132.448 15.807 132.123C17.1217 133.117 18.1572 134.33 19.2504 135.657C18.6435 135.412 18.3394 134.924 17.8308 134.713C18.0615 135.044 18.2936 135.374 18.5597 135.756C18.2123 135.657 18.093 135.295 17.6932 135.324C17.9095 135.808 18.3486 136.039 18.6186 136.435C18.1835 136.145 17.7417 135.997 17.161 136.219C17.8164 137.482 19.2439 137.836 20.0107 138.948C20.7697 140.051 21.0554 141.47 22.2011 142.34C21.3582 142.685 20.5691 143.009 19.78 143.331C16.8962 144.506 14.5158 143.635 12.9927 140.853C12.8957 140.677 12.8721 140.413 12.5352 140.371C12.6427 140.819 12.589 141.213 12.4474 141.6C12.2835 142.046 12.0502 142.172 11.6714 141.826C11.2441 141.437 10.7932 141.082 10.4301 140.618C9.0262 138.823 8.5045 136.727 8.45601 134.463C8.42323 132.929 8.79157 131.441 8.94231 129.927C8.96722 129.68 8.99212 129.427 8.97246 129.181C8.94755 128.871 8.82827 128.59 8.48484 128.545C8.12962 128.499 7.98674 128.759 7.89105 129.058C7.77963 129.407 7.7154 129.767 7.73244 130.133C7.92382 134.256 7.59743 138.359 7.23696 142.456C7.11243 143.865 6.71133 145.218 5.97728 146.434C6.24993 145.538 6.67332 144.693 6.77425 143.74C6.62875 143.922 6.54355 144.128 6.45572 144.332C6.0035 145.391 5.56831 146.464 4.91947 147.414C4.41612 148.152 3.87214 148.867 2.7514 149.069C4.03337 147.895 5.1056 146.755 5.80557 145.285C6.50816 143.807 6.83061 142.247 6.92499 140.619C6.49767 141.804 6.38232 143.081 5.88946 144.248C5.2629 145.731 4.47511 146.938 3.85641 147.244C6.14638 144.433 6.98529 140.122 6.66807 138.606C6.27483 142.681 4.4502 146.736 2.4722 147.817C2.68455 147.525 2.8484 147.286 3.02536 147.057C4.63502 144.961 5.86062 142.693 6.07952 139.942C6.17783 138.699 6.20405 137.444 6.47014 136.218C6.49767 136.092 6.51209 135.939 6.27877 135.826C5.70595 137.066 4.99942 138.202 3.47496 138.622C3.68469 138.212 4.10284 138.167 4.171 137.752C3.58245 137.888 3.13809 138.471 2.44205 138.144C3.24557 137.692 3.97045 137.253 4.49608 136.526C3.67552 136.875 3.02274 137.661 2.03571 137.559C2.98341 137.176 3.78169 136.597 4.4266 135.788C3.83937 136.073 3.31111 136.462 2.73829 136.758C2.05668 137.111 1.40259 136.926 1.07882 136.376C2.57313 136.726 4.1959 135.859 4.83295 134.301C4.27717 134.754 3.87345 135.262 3.33209 135.601C2.52332 136.106 2.04488 136.171 1.61101 135.763C4.8998 134.839 5.88946 132.016 6.76245 128.871C6.67987 130.355 6.35479 131.588 5.97728 132.809C7.61578 129.252 7.77308 125.402 7.9946 121.562C8.10471 123.521 7.84386 125.484 8.21875 127.441C8.30657 123.245 8.21482 119.035 9.44435 114.972C9.36832 115.482 9.25428 115.987 9.15859 116.495C8.58971 119.502 8.37604 122.53 8.69588 125.585C8.72603 125.876 8.74831 126.19 9.07339 126.531C9.00523 125.345 8.90692 124.309 8.89905 123.272C8.89119 122.251 8.94755 121.227 9.02358 120.207C9.10092 119.166 9.19005 118.121 9.41289 117.1C9.63572 116.08 9.84545 115.056 10.1129 114.049C10.375 113.063 10.6765 112.088 11.0081 111.126C11.3398 110.165 11.7291 109.225 12.3032 108.386C10.2282 113.197 8.84269 118.146 9.30409 123.484C9.31064 122.209 9.44959 120.928 9.54528 119.646C9.64228 118.34 9.87429 117.054 10.2531 115.793C9.53348 118.704 9.49154 121.646 9.76811 124.606C10.0067 124.063 9.87691 123.491 9.97391 122.934C9.92803 126.154 10.4392 129.274 11.5128 132.291C12.5732 135.27 13.9797 138.021 16.3772 140.094C17.4166 140.994 18.6082 141.582 20.0081 141.959C19.9176 141.818 19.9019 141.766 19.8691 141.75C19.7132 141.671 19.5519 141.601 19.392 141.527C17.7509 140.766 16.3129 139.733 15.2709 138.174L15.2735 138.167ZM8.97901 152.058C10.746 149.145 11.91 146.067 11.4879 142.535C12.0922 145.365 11.3293 148.031 10.5192 150.702C11.1261 149.604 11.4905 148.431 11.7933 147.23C12.0961 146.02 12.2101 144.794 12.1826 143.548C12.3661 145.428 12.2088 147.268 11.6806 149.077C11.5796 149.424 11.3568 149.81 11.6806 150.322C12.2849 148.3 12.8079 146.393 12.7187 144.36C12.7961 145.584 12.7921 146.801 12.7187 148.023C13.2063 146.713 13.1683 145.331 13.247 143.963C13.3191 144.931 13.4724 145.889 13.4462 146.864C13.8513 145.555 13.5996 144.222 13.5917 142.894C13.9601 143.949 14.0649 145.055 14.1685 146.153C14.3638 148.228 14.1685 150.243 13.1238 152.089C12.7633 152.725 12.5156 152.762 12.0424 152.197C11.8169 151.927 11.6491 151.603 11.4132 151.237C11.033 153.656 10.185 155.708 8.42193 157.243C7.71934 157.855 6.95776 158.392 6.23551 158.979C5.89339 159.258 5.73479 159.1 5.61157 158.76C5.47656 158.387 5.47525 158.005 5.5185 157.616C5.53685 157.457 5.66793 157.259 5.32975 157.112C4.59177 158.922 2.69242 159.34 1.39866 160.72C1.44978 159.134 2.25461 158.028 3.10663 156.76C2.51415 156.988 2.40535 157.487 2.03702 157.688C1.94002 157.412 2.27427 157.285 2.15499 156.985C1.52056 157.504 1.3554 158.311 0.853366 159.112C1.10373 157.824 1.78666 156.951 2.12091 155.895C1.83647 156.263 1.55333 156.63 1.26889 156.998C1.22563 156.964 1.18238 156.93 1.14043 156.896C1.63591 156.132 2.13008 155.368 2.62557 154.604C1.9623 154.972 1.63198 155.64 1.12601 156.136C1.76699 154.71 2.87986 153.651 3.82626 152.419C3.47234 152.327 3.3583 152.75 3.00177 152.643C3.27966 152.303 3.51822 152.011 3.7581 151.718C2.88117 152.135 2.29918 152.879 1.65558 153.55C2.15368 152.366 2.99915 151.473 3.83937 150.553C3.56934 150.716 3.29932 150.878 3.0306 151.042C3.11843 150.765 3.25082 150.529 3.4422 150.365C4.00715 149.88 4.4869 149.349 4.94306 148.73C6.53699 146.572 7.50305 144.199 7.7154 141.489C7.8124 140.24 7.91595 138.992 8.01689 137.744C8.29871 140.927 8.21482 144.056 6.70084 146.964C7.53451 145.921 7.90547 144.691 8.19647 143.428C8.48484 142.172 8.46387 140.872 8.65131 139.602C8.76273 141.735 8.82958 143.862 7.91989 145.873C9.04455 144.674 8.88595 143.077 9.1835 141.452C9.27788 142.351 9.21496 143.074 9.232 143.799C9.45483 143.047 9.52169 142.278 9.56625 141.505C9.63179 141.75 9.59247 142.087 9.7301 142.213C9.92672 142.392 10.0211 142.535 10.0421 142.804C10.282 145.887 9.57281 148.711 7.93169 151.282C7.57384 151.843 7.13341 152.359 7.23041 153.176C10.0263 150.19 11.3555 146.71 10.9491 142.562C11.5102 146.001 10.4248 149.07 8.98426 152.064L8.97901 152.058ZM19.3016 167.559C19.7407 166.615 19.6437 165.575 19.7957 164.535C19.9425 165.084 19.7302 165.634 20.033 166.247C20.2296 165.429 20.1195 164.723 20.2073 164.032C20.4144 165.242 20.674 166.435 20.556 167.679C20.3489 169.872 19.5808 171.866 18.6068 173.787C17.338 176.29 15.554 178.148 12.779 178.736C12.1027 178.88 11.4407 178.907 10.6542 178.559C11.1104 178.492 11.3961 178.84 11.7435 178.574C11.5259 178.353 11.1877 178.415 10.9898 178.125C11.2467 178.127 11.4617 178.267 11.75 178.029C11.1615 177.831 10.6791 177.565 10.4327 176.99C10.9033 177.438 11.3896 177.794 12.2508 177.512C11.6832 177.29 11.2061 177.294 10.8744 176.776C11.3371 176.922 11.6793 177.238 12.0961 177.114C12.1603 176.855 11.8654 176.915 11.8523 176.746C11.9703 176.631 12.2219 176.796 12.2796 176.493C12.0725 176.292 11.7684 176.311 11.5207 176.194C11.1943 176.04 10.8705 175.872 10.8705 175.432C10.8705 175.013 11.1877 174.883 11.4944 174.739C12.3294 174.346 13.167 173.955 13.9889 173.535C15.8044 172.606 17.1138 171.16 17.9423 169.244C18.523 167.901 18.8572 166.499 18.8664 165.018C18.8677 164.755 18.7274 164.3 19.1285 164.303C19.4667 164.305 19.3252 164.738 19.3291 164.977C19.3435 165.833 19.3619 166.692 19.2989 167.559L19.3016 167.559ZM22.1132 188.334C21.6728 187.139 22.0844 185.96 23.0151 185.279C24.1502 184.447 25.2513 185.143 26.3668 185.254C26.4389 185.261 26.5083 185.354 26.57 185.415C28.0839 186.935 27.9214 190.191 26.2658 191.534C24.7126 192.794 22.4737 192.86 20.6045 191.683C19.9897 191.295 19.274 190.944 18.9516 190.274C18.5583 189.456 18.1061 188.67 17.7168 187.848C16.9015 186.124 16.5397 184.35 16.6485 182.451C16.7311 183.734 16.967 184.975 17.549 186.118C17.5032 185.457 17.3432 184.824 17.2475 184.179C17.1545 183.553 17.064 182.913 17.0863 182.283C17.1086 181.656 17.0483 181.001 17.3747 180.228C17.1755 182.23 17.2371 184.028 17.9868 185.74C17.9187 185.279 17.8492 184.818 17.7614 184.225C18.0222 184.696 17.9121 185.404 18.1795 185.416C18.7904 185.444 18.7209 185.932 18.8651 186.226C19.6778 187.877 20.8378 189.105 22.5602 189.686C23.5315 190.013 24.5041 189.552 24.6981 188.696C23.8802 189 23.4188 188.858 23.1488 188.195C22.9312 187.661 23.0623 187.18 23.39 186.73C23.7177 186.281 24.2276 186.167 24.7938 185.952C24.0047 185.614 23.5604 186.185 22.9207 186.498C23.1724 185.878 23.5669 185.679 23.9942 185.519C24.4255 185.358 24.8764 185.474 25.3181 185.411C24.6981 184.999 24.0532 185.007 23.4424 185.389C22.3793 186.054 21.9612 187.06 22.1119 188.337L22.1132 188.334ZM17.4376 159.905C17.9082 161.328 17.4206 162.607 17.1204 163.759C16.3759 166.626 14.5289 168.671 11.8156 169.723C10.5677 170.206 9.35653 170.06 8.37343 168.99C7.80323 168.37 7.65249 167.555 7.99461 167C8.35114 166.422 9.038 166.259 9.87823 166.61C10.8928 167.033 11.8851 166.962 12.8721 166.547C13.1382 166.435 13.3833 166.307 13.6861 166.402C13.8565 166.456 14.0898 166.449 14.1436 166.256C14.2288 165.949 13.9168 165.993 13.7634 165.919C13.5616 165.824 13.3283 165.761 13.2889 165.503C13.2444 165.205 13.4751 165.062 13.6769 164.928C13.8421 164.819 14.0164 164.718 14.1986 164.647C14.9838 164.344 15.575 163.793 16.0809 163.116C16.7652 162.2 17.1387 161.142 17.4376 159.906L17.4376 159.905ZM15.3652 191.358C15.9158 190.528 15.9984 189.56 16.1347 188.536C16.2382 189.336 15.9761 190.046 16.001 190.853C16.3143 190.484 16.2854 190.077 16.4047 189.703C16.6734 189.967 16.3418 190.274 16.5882 190.547C16.8504 190.041 16.6787 189.492 16.832 188.991C16.7285 189.59 17.3799 189.716 17.4782 190.206C17.9121 192.357 17.5346 194.31 16.2579 196.071C16.1111 196.274 15.8633 196.438 15.9407 196.875C16.9579 196.334 17.1886 195.257 17.7496 194.244C17.6709 195.102 17.2253 195.664 17.1702 196.343C17.958 195.36 18.2306 194.188 18.3604 192.811C18.5125 194.063 18.2136 195.111 18.0419 196.18C18.637 195.144 18.7274 193.994 18.7419 192.827C18.9359 194.019 18.7156 195.174 18.4692 196.333C19.0525 195.534 19.0486 194.56 19.2557 193.652C19.3737 194.631 19.3212 195.571 18.8284 196.437C18.7655 196.546 18.7117 196.714 18.7471 196.822C18.9437 197.427 18.3748 197.565 18.1507 197.906C18.0484 198.061 17.8872 197.951 17.8584 197.806C17.6146 196.576 17.4206 197.361 17.1807 197.81C17.0889 197.981 16.929 198.141 16.7626 198.235C16.1189 198.601 15.4609 198.939 14.7465 199.32C14.6889 198.477 15.1647 197.943 15.4924 197.286C15.1044 197.353 14.9576 197.63 14.7714 197.802C14.3717 197.356 14.4634 196.893 14.7321 196.42C14.6666 196.378 14.601 196.334 14.5355 196.292C14.4411 196.475 14.3467 196.657 14.2524 196.84C14.8291 195.379 15.1752 193.886 15.6824 192.306C15.2276 192.525 15.0349 193.013 14.5696 192.838C14.6312 192.629 14.8947 192.629 14.8789 192.349C14.5014 192.587 14.3454 192.154 13.9994 192.147C15.1503 191.028 15.5579 189.665 15.6589 188.161C15.9053 189.268 15.4845 190.293 15.3613 191.358L15.3652 191.358ZM19.1089 150.189C19.2871 150.803 19.5952 151.331 19.822 151.892C20.4157 153.357 21.0541 154.807 21.353 156.383C21.7724 158.596 21.5155 160.682 20.2598 162.571C19.8744 163.152 19.3828 163.593 18.6685 163.649C18.2595 163.68 17.937 163.514 17.7915 163.09C17.6657 162.724 17.7666 162.419 18.076 162.196C19.6843 161.036 20.1798 159.314 20.286 157.408C20.3633 156.026 19.9884 154.705 19.7315 153.37C19.527 152.309 19.316 151.249 19.1089 150.189ZM22.0005 106.492C22.0005 106.203 21.9926 106.069 22.0005 105.936C22.066 104.933 22.8368 104.167 23.7058 104.238C24.5146 104.305 25.0927 105.071 25.0507 106.043C25.0429 106.218 25.0376 106.365 25.212 106.439C25.3863 106.514 25.6144 106.517 25.6956 106.36C25.9801 105.808 26.4834 105.316 26.2265 104.481C26.1321 104.759 26.0679 104.949 26.0037 105.139C26.2134 104.452 25.5305 103.797 25.9329 103.128C25.2356 102.35 24.7859 101.29 23.6862 100.968C22.8197 100.714 21.9507 100.556 21.0397 100.72C20.3633 100.841 19.7105 101.055 19.0473 101.229C20.9256 100.018 23.9234 100.331 25.8687 101.913C27.4796 103.224 27.8204 105.086 26.8072 106.948C26.5503 107.42 26.2213 107.793 25.7376 108.006C24.6575 108.481 23.6075 107.98 23.3808 106.944C23.2864 106.514 23.618 106.268 23.6941 105.917C23.2903 105.861 23.2025 106.249 22.9115 106.447C23.0347 105.767 23.268 105.311 23.8631 105.158C24.0637 105.106 24.2813 104.963 24.2472 104.77C24.2079 104.549 23.9326 104.578 23.7426 104.566C22.8525 104.508 22.2928 105.088 21.9992 106.491L22.0005 106.492ZM13.8447 127.845C14.7623 128.829 15.9013 128.929 17.1138 128.83C17.8558 128.77 18.1612 129.266 17.9357 130.002C17.7443 130.626 17.3576 130.899 16.7416 130.926C16.0311 130.957 15.478 130.652 15.0008 130.147C14.4057 129.516 14.0649 128.738 13.8447 127.843L13.8447 127.845ZM12.6034 179.389C12.6204 179.464 12.6361 179.538 12.6532 179.613C13.3033 179.27 13.981 179.665 14.6351 179.423C14.6954 179.401 14.7977 179.352 14.816 179.374C15.2905 179.923 15.6353 179.349 16.0101 179.206C16.292 179.098 16.5318 178.875 16.9447 178.604C16.1596 179.603 15.3259 180.288 14.4267 180.725C13.5511 181.151 13.2798 181.142 12.6112 180.785C12.4356 180.691 12.1905 180.739 11.9847 180.721C11.9493 180.471 12.3687 180.577 12.2416 180.321C12.1616 180.162 11.9663 180.228 11.8195 180.222C11.6255 180.212 11.4315 180.219 11.2087 180.219C11.3411 179.983 11.6439 180.211 11.712 179.919C11.4499 179.708 11.0724 179.85 10.8259 179.611C10.8836 179.482 11.1012 179.637 11.113 179.412C10.6857 179.148 10.1391 179.071 9.84152 178.574C10.4733 178.971 11.1392 179.174 11.8838 179.177C12.606 179.18 13.2758 178.881 13.9994 178.897L12.6047 179.389L12.6034 179.389ZM17.1269 159.02C16.5515 155.282 15.8712 151.756 15.1109 148.246C16.1661 151.705 17.1754 155.173 17.1269 159.02ZM14.833 162.051C15.2499 158.866 14.4385 155.781 14.078 152.657C14.8763 155.736 15.4557 158.836 14.833 162.051ZM17.4533 154.111C16.8687 151.258 16.2343 148.429 15.3626 145.661C16.4113 148.389 17.0444 151.226 17.4533 154.111ZM18.5387 158.566C18.1769 156.044 17.7483 153.535 17.3223 151.024C17.9344 153.502 18.4404 155.998 18.5387 158.566Z" fill="#323232"/>
</g>
<defs>
<clipPath id="clip0_18_11015">
<rect width="28" height="100" fill="white"/>
</clipPath>
<clipPath id="clip1_18_11015">
<rect width="28" height="100" fill="white" transform="matrix(1 -8.74228e-08 -8.74228e-08 -1 0 200)"/>
</clipPath>
</defs>
</svg>
